<svg xmlns="http://www.w3.org/2000/svg" viewBox="0 0 32 32">
    <g fill="#FACC15">
        <path
            d="M31.285 23.402l-0.088-0.088c-0.326-0.326-0.723-0.532-1.139-0.636 0.352-0.434 0.553-0.967 0.553-1.537 0-0.658-0.254-1.275-0.718-1.738s-1.080-0.718-1.738-0.718-1.276 0.255-1.738 0.718l-0.869 0.869-13.905-13.905 0.869-0.869c0.463-0.463 0.718-1.080 0.718-1.738s-0.255-1.275-0.718-1.738c-0.462-0.463-1.079-0.718-1.738-0.718-0.57 0-1.102 0.202-1.537 0.553-0.104-0.417-0.31-0.813-0.635-1.139-0.959-0.958-2.517-0.958-3.476 0l-4.345 4.345c-0.958 0.958-0.958 2.518 0 3.476 0.325 0.326 0.722 0.531 1.139 0.635-0.352 0.435-0.552 0.967-0.552 1.537 0 0.659 0.254 1.276 0.718 1.738s1.080 0.718 1.738 0.718c0.658 0 1.275-0.255 1.738-0.718l0.869-0.869 13.905 13.905-0.869 0.869c-0.463 0.463-0.718 1.080-0.718 1.738s0.255 1.275 0.718 1.738c0.463 0.463 1.080 0.718 1.738 0.718 0.57 0 1.102-0.201 1.538-0.553 0.104 0.417 0.31 0.814 0.635 1.14l0.235 0.234c0.4 0.401 0.934 0.621 1.503 0.621 0.57 0 1.103-0.221 1.504-0.621l4.669-4.668c0.91-0.91 0.91-2.39-0-3.3zM4.69 11.582c-0.462 0.461-1.278 0.461-1.738 0-0.231-0.231-0.358-0.54-0.358-0.87s0.127-0.638 0.358-0.869l6.952-6.952c0.231-0.231 0.54-0.358 0.869-0.358s0.638 0.127 0.869 0.358c0.231 0.23 0.358 0.539 0.358 0.869s-0.127 0.638-0.358 0.869l-6.952 6.953zM29.024 22.011l-6.953 6.952c-0.462 0.462-1.278 0.461-1.738 0-0.231-0.23-0.358-0.539-0.358-0.869s0.127-0.638 0.358-0.87l6.952-6.952c0.231-0.231 0.54-0.358 0.87-0.358s0.638 0.127 0.869 0.358c0.231 0.23 0.358 0.539 0.358 0.869s-0.127 0.638-0.358 0.869z">
        </path>
        <path
            d="M22.097 15.084l3.451-3.451 0.869 0.869c0.463 0.463 1.080 0.718 1.738 0.718s1.275-0.255 1.738-0.718 0.718-1.080 0.718-1.738c0-0.57-0.202-1.102-0.553-1.537 0.417-0.104 0.814-0.31 1.14-0.636l0.085-0.086c0.911-0.911 0.911-2.392 0-3.303l-4.432-4.432c-0.959-0.957-2.517-0.959-3.476 0-0.325 0.325-0.53 0.722-0.635 1.139-0.435-0.352-0.968-0.553-1.538-0.553-0.658 0-1.275 0.255-1.738 0.718s-0.718 1.080-0.718 1.738 0.255 1.275 0.718 1.738l0.869 0.869-3.451 3.451 5.214 5.214zM19.976 3.812c0-0.33 0.127-0.638 0.358-0.87s0.539-0.358 0.869-0.358c0.329 0 0.638 0.127 0.869 0.358l1.303 1.303c0 0.001 0 0.001 0.001 0.001l5.649 5.649c0.231 0.231 0.358 0.54 0.358 0.869s-0.127 0.638-0.358 0.87c-0.46 0.461-1.277 0.461-1.738 0l-6.952-6.953c-0.231-0.23-0.358-0.539-0.358-0.869z">
        </path>
        <path
            d="M9.931 16.822l-3.502 3.502-0.869-0.869c-0.463-0.463-1.080-0.718-1.738-0.718s-1.275 0.255-1.738 0.718c-0.463 0.463-0.718 1.080-0.718 1.738 0 0.57 0.202 1.102 0.553 1.537-0.417 0.104-0.814 0.31-1.139 0.635l-0.049 0.049c-0.931 0.932-0.931 2.448 0 3.379l4.556 4.555c0.42 0.42 0.98 0.651 1.576 0.651s1.156-0.232 1.576-0.651l0.162-0.162c0.325-0.326 0.53-0.722 0.635-1.139 0.435 0.352 0.968 0.553 1.537 0.553 0.658 0 1.275-0.255 1.738-0.718s0.718-1.080 0.718-1.738-0.255-1.275-0.718-1.738l-0.869-0.869 3.502-3.502-5.214-5.214zM12 28.145c0 0.33-0.127 0.638-0.358 0.87-0.46 0.461-1.276 0.461-1.738 0l-1.303-1.303c0-0.001-0.001-0.001-0.001-0.001l-5.649-5.649c-0.231-0.231-0.358-0.54-0.358-0.869s0.127-0.639 0.358-0.87c0.23-0.231 0.539-0.358 0.869-0.358s0.638 0.127 0.869 0.358l6.953 6.953c0.231 0.23 0.358 0.539 0.358 0.869z">
        </path>
    </g>
</svg>