<svg aria-hidden="true" style="position: absolute; width: 0; height: 0; overflow: hidden;" version="1.1"
    xmlns="http://www.w3.org/2000/svg" xmlns:xlink="http://www.w3.org/1999/xlink">
    <defs>
        <symbol id="icon-youtube" viewBox="0 0 32 32">
            <path
                d="M29.291 8.725c-0.248-0.942-0.92-1.688-1.793-2.036l-0.020-0.007c-4.284-1.646-11.106-1.632-11.478-1.63-0.372-0.003-7.194-0.016-11.478 1.63-0.893 0.355-1.565 1.102-1.808 2.022l-0.005 0.021c-0.323 1.241-0.709 3.511-0.709 7.275s0.385 6.034 0.709 7.275c0.248 0.942 0.92 1.688 1.793 2.036l0.020 0.007c4.101 1.576 10.528 1.631 11.396 1.631 0.078 0 0.087 0 0.165 0 0.869-0 7.295-0.055 11.396-1.631 0.893-0.355 1.565-1.102 1.808-2.022l0.005-0.021c0.323-1.241 0.709-3.511 0.709-7.275s-0.385-6.034-0.709-7.275zM20.277 16.416l-6 4c-0.078 0.053-0.174 0.084-0.277 0.084-0.276 0-0.5-0.224-0.5-0.5 0-0 0-0 0-0v0-8c0-0 0-0 0-0 0-0.276 0.224-0.5 0.5-0.5 0.103 0 0.199 0.031 0.279 0.085l-0.002-0.001 6 4c0.135 0.091 0.223 0.243 0.223 0.416s-0.088 0.325-0.221 0.415l-0.002 0.001z">
            </path>
        </symbol>
        <symbol id="icon-facebook" viewBox="0 0 32 32">
            <path
                d="M18.667 8h4c0.736 0 1.333-0.597 1.333-1.333v0-2.667c0-0.736-0.597-1.333-1.333-1.333v0h-4c-3.682 0-6.667 2.985-6.667 6.667v0 4h-2.667c-0.736 0-1.333 0.597-1.333 1.333v0 2.667c0 0.736 0.597 1.333 1.333 1.333v0h2.667v9.333c0 0.736 0.597 1.333 1.333 1.333v0h2.667c0.736 0 1.333-0.597 1.333-1.333v0-9.333h2.96c0.012 0 0.025 0.001 0.039 0.001 0.623 0 1.146-0.427 1.293-1.005l0.002-0.009 0.667-2.667c0.025-0.096 0.039-0.207 0.039-0.321 0-0.736-0.597-1.333-1.333-1.333-0.014 0-0.027 0-0.041 0.001l0.002-0h-3.627v-4c0-0.736 0.597-1.333 1.333-1.333v0z">
            </path>
        </symbol>

        <symbol id="icon-menu-button" viewBox="0 0 32 32">
            <path
                d="M3.2 6.4h25.6c1.766 0 3.2-1.432 3.2-3.2s-1.432-3.2-3.2-3.2h-25.6c-1.768 0-3.2 1.432-3.2 3.2s1.432 3.2 3.2 3.2zM28.8 12.8h-25.6c-1.768 0-3.2 1.432-3.2 3.2s1.432 3.2 3.2 3.2h25.6c1.766 0 3.2-1.432 3.2-3.2s-1.432-3.2-3.2-3.2zM28.8 25.6h-25.6c-1.768 0-3.2 1.432-3.2 3.2s1.432 3.2 3.2 3.2h25.6c1.766 0 3.2-1.432 3.2-3.2s-1.432-3.2-3.2-3.2z">
            </path>
        </symbol>
        <symbol id="icon-close" viewBox="0 0 32 32">
            <path
                d="M6.1 6.1c0.362-0.362 0.862-0.586 1.414-0.586s1.052 0.224 1.414 0.586l7.072 7.072 7.072-7.072c0.359-0.347 0.849-0.561 1.389-0.561 1.105 0 2 0.895 2 2 0 0.54-0.214 1.030-0.562 1.39l0.001-0.001-7.072 7.072 7.072 7.072c0.347 0.359 0.561 0.849 0.561 1.389 0 1.105-0.895 2-2 2-0.54 0-1.030-0.214-1.39-0.562l0.001 0.001-7.072-7.072-7.072 7.072c-0.359 0.347-0.849 0.561-1.389 0.561-1.105 0-2-0.895-2-2 0-0.54 0.214-1.030 0.562-1.39l-0.001 0.001 7.072-7.072-7.072-7.072c-0.362-0.362-0.586-0.862-0.586-1.414s0.224-1.052 0.586-1.414v0z">
            </path>
        </symbol>
        <symbol id="icon-linkedin-logo" viewBox="0 0 32 32">
            <path
                d="M6.984 9.019h-6.062c-0.415 0-0.751 0.336-0.751 0.751v21.191c0 0.415 0.336 0.751 0.751 0.751h6.063c0.415 0 0.751-0.337 0.751-0.751v-21.191c-0.001-0.415-0.336-0.751-0.752-0.751zM6.233 30.209h-4.56v-19.688h4.56v19.688zM23.886 8.761c-2.943 0-4.869 1.27-5.988 2.375l-0.138-1.438c-0.038-0.386-0.362-0.679-0.747-0.679h-0.015l-5.526 0.106c-0.203 0.004-0.395 0.089-0.533 0.237s-0.212 0.345-0.203 0.548c0.069 1.547 0.067 3.356 0.064 5.45l-0.001 15.708c0 0.415 0.337 0.751 0.751 0.751h6.063c0.415 0 0.751-0.336 0.751-0.751v-12.25c0-0.626 0.054-1.078 0.161-1.347 0.378-0.962 1.625-1.957 3.056-1.957 1.854 0 2.961 1.41 2.961 3.774v11.78c0 0.415 0.337 0.751 0.751 0.751h5.956c0.415 0 0.751-0.336 0.751-0.751v-12.549c0-6.11-3.034-9.757-8.114-9.757zM30.498 30.316h-4.454v-11.029c0-3.206-1.752-5.276-4.463-5.276-2.151 0-3.9 1.499-4.452 2.906-0.183 0.456-0.267 1.061-0.267 1.9v11.499h-4.56l0.001-14.955c0.002-1.779 0.005-3.353-0.037-4.75l4.067-0.078 0.234 2.422c0.038 0.385 0.361 0.679 0.748 0.679h0.128c0.259 0 0.5-0.133 0.637-0.353 0.443-0.708 2.171-3.018 5.809-3.018 4.202 0 6.612 3.009 6.612 8.255v11.798h-0.001zM4.207 0.182c-2.438 0-4.207 1.68-4.207 3.996 0 2.314 1.734 3.993 4.123 3.993 2.463 0 4.25-1.679 4.25-4.011-0.055-2.342-1.768-3.978-4.166-3.978zM4.123 6.669c-1.543 0-2.621-1.024-2.621-2.491 0-1.492 1.088-2.494 2.705-2.494 1.582 0 2.629 0.985 2.664 2.494 0 1.49-1.105 2.491-2.748 2.491z">
            </path>
        </symbol>
        <symbol id="icon-plate-utensils" viewBox="0 0 32 32">
            <path
                d="M32 1.333v8c0 3.219-2.295 5.912-5.333 6.532v14.801c0 0.736-0.597 1.333-1.333 1.333s-1.333-0.597-1.333-1.333v-14.801c-3.039-0.62-5.333-3.312-5.333-6.532v-8c0-0.736 0.597-1.333 1.333-1.333s1.333 0.597 1.333 1.333v8c0 1.736 1.119 3.203 2.667 3.755v-11.755c0-0.736 0.597-1.333 1.333-1.333s1.333 0.597 1.333 1.333v11.755c1.548-0.552 2.667-2.019 2.667-3.755v-8c0-0.736 0.597-1.333 1.333-1.333s1.333 0.597 1.333 1.333zM19.637 28.832c-1.179 0.333-2.401 0.501-3.637 0.501-7.352 0-13.333-5.981-13.333-13.333 0-6.947 5.211-12.656 12.12-13.279 0.733-0.067 1.275-0.715 1.208-1.448-0.065-0.733-0.691-1.261-1.448-1.208-8.293 0.748-14.547 7.599-14.547 15.935 0 8.823 7.177 16 16 16 1.48 0 2.948-0.203 4.363-0.603 0.708-0.2 1.12-0.937 0.92-1.645s-0.933-1.116-1.645-0.92zM19.428 23.231c-1.075 0.511-2.227 0.769-3.428 0.769-4.412 0-8-3.588-8-8 0-3.956 2.947-7.36 6.856-7.919 0.729-0.104 1.236-0.779 1.131-1.508-0.104-0.729-0.783-1.231-1.508-1.131-5.213 0.745-9.144 5.285-9.144 10.559 0 5.881 4.785 10.667 10.667 10.667 1.6 0 3.139-0.345 4.572-1.028 0.665-0.316 0.948-1.112 0.632-1.777s-1.112-0.948-1.777-0.632z">
            </path>
        </symbol>
        <symbol id="icon-instagram" viewBox="0 0 32 32">
            <path
                d="M24 2.667h-16c-2.933 0-5.333 2.4-5.333 5.333v16c0 2.933 2.4 5.333 5.333 5.333h16c2.933 0 5.333-2.4 5.333-5.333v-16c0-2.933-2.4-5.333-5.333-5.333zM16 22.667c-3.667 0-6.667-3-6.667-6.667s3-6.667 6.667-6.667 6.667 3 6.667 6.667-3 6.667-6.667 6.667zM23.333 10c-0.733 0-1.333-0.6-1.333-1.333s0.6-1.333 1.333-1.333 1.333 0.6 1.333 1.333c0 0.733-0.6 1.333-1.333 1.333z">
            </path>
        </symbol>
        <symbol id="icon-telegram-logo" viewBox="0 0 32 32">
            <path
                d="M28.907 3.967c-0.348-0.301-0.804-0.485-1.304-0.485-0.264 0-0.515 0.051-0.746 0.144l0.013-0.005-23.070 9.063c-0.749 0.3-1.269 1.020-1.269 1.861 0 0.966 0.684 1.772 1.595 1.959l0.013 0.002 5.86 1.172v7.319c0 0 0 0.001 0 0.002 0 1.104 0.895 1.999 1.999 1.999 0.553 0 1.053-0.224 1.415-0.587l3.243-3.243 4.922 4.331c0.348 0.31 0.809 0.5 1.314 0.5h0c0.222-0 0.435-0.036 0.635-0.102l-0.014 0.004c0.67-0.217 1.176-0.764 1.333-1.443l0.003-0.013 4.702-20.517c0.032-0.135 0.051-0.29 0.051-0.449 0-0.604-0.269-1.146-0.693-1.512l-0.003-0.002zM10.768 15.793l-6.236-1.247 17.46-6.859zM12 24.997v-5.926l3.152 2.774zM22.9 25.999l-10.299-9.063 14.831-10.711z">
            </path>
        </symbol>
        <symbol id="icon-twitter-logo" viewBox="0 0 44 32">
            <path
                d="M8.813 3.728l10.125 13.538-10.189 11.007h2.293l8.92-9.637 7.207 9.637h7.804l-10.695-14.3 9.484-10.245h-2.293l-8.215 8.875-6.638-8.875h-7.804zM12.185 5.417h3.585l15.831 21.166h-3.585l-15.831-21.166z">
            </path>
        </symbol>
        <symbol id="icon-link" viewBox="0 0 32 32">
            <path
                d="M18.31 11.266c-0.35-0.225-0.758-0.286-1.135-0.202-0.373 0.083-0.715 0.308-0.938 0.655-0.224 0.349-0.285 0.755-0.202 1.13 0.082 0.375 0.307 0.719 0.655 0.942 1.447 0.927 2.31 2.501 2.31 4.209 0 1.336-0.52 2.591-1.464 3.535l-6 6c-0.945 0.945-2.201 1.465-3.536 1.465-2.757 0-5-2.243-5-5 0-1.336 0.52-2.591 1.464-3.535l2.846-2.847c0.3-0.3 0.446-0.695 0.44-1.088-0.007-0.375-0.153-0.747-0.44-1.033-0.293-0.293-0.677-0.44-1.060-0.44-0.384 0-0.768 0.146-1.060 0.44l-2.846 2.847c-1.512 1.51-2.344 3.519-2.344 5.656 0 4.411 3.589 8 8 8 2.137 0 4.146-0.832 5.657-2.344l6-6c1.511-1.509 2.343-3.519 2.343-5.656 0-2.735-1.379-5.252-3.69-6.734zM24 0c-2.137 0-4.146 0.832-5.657 2.344l-6 6c-1.511 1.509-2.343 3.519-2.343 5.655 0 2.735 1.379 5.253 3.69 6.735 0.35 0.224 0.758 0.285 1.135 0.201 0.373-0.082 0.715-0.307 0.938-0.654 0.224-0.35 0.285-0.756 0.202-1.131-0.082-0.375-0.307-0.719-0.655-0.941-1.446-0.928-2.31-2.502-2.31-4.21 0-1.336 0.52-2.591 1.464-3.535l6-6c0.945-0.944 2.201-1.464 3.536-1.464 2.757 0 5 2.243 5 4.999 0 1.336-0.52 2.591-1.464 3.535l-2.846 2.846c-0.3 0.3-0.446 0.695-0.44 1.088 0.007 0.375 0.153 0.747 0.44 1.033 0.293 0.293 0.677 0.439 1.061 0.439s0.768-0.146 1.060-0.439l2.846-2.847c1.511-1.508 2.343-3.518 2.343-5.655 0-4.41-3.589-7.999-8-7.999z">
            </path>
        </symbol>
        <symbol id="icon-exercise-kettlebell" viewBox="0 0 32 32">
            <path
                d="M19.179 3.471c0 1.467-1.189 2.656-2.656 2.656s-2.656-1.189-2.656-2.656c0-1.467 1.189-2.656 2.656-2.656s2.656 1.189 2.656 2.656z">
            </path>
            <path
                d="M26.184 12.693c-0.584-0.334-1.328-0.131-1.662 0.453-0.197 0.344-0.206 0.743-0.062 1.082l-0.192 0.336-1.827-1.936-1.51-4.631c-0.151-0.463-0.56-0.769-1.016-0.811v-0.017h-5.89c-0.014-0.006-0.027-0.013-0.041-0.019l-3.554-1.393-0.302-3.446 0.647 0.003c0.221 0.294 0.571 0.485 0.968 0.487 0.673 0.003 1.22-0.54 1.223-1.213s-0.54-1.22-1.213-1.223c-0.396-0.002-0.748 0.187-0.972 0.479l-0.806-0.003c-0.158-0.526-0.667-0.887-1.236-0.837-0.493 0.043-0.888 0.383-1.026 0.828l-0.321-0.001c-0.221-0.294-0.571-0.485-0.968-0.487-0.673-0.003-1.22 0.54-1.223 1.213s0.54 1.22 1.213 1.223c0.396 0.002 0.748-0.187 0.972-0.479l0.367 0.001 0.385 4.392c0.039 0.447 0.329 0.834 0.747 0.998l4.237 1.66c0.002 0.001 0.004 0.001 0.006 0.002v8.287l-2.932 12.467c-0.194 0.827 0.318 1.655 1.145 1.849s1.655-0.318 1.849-1.145l2.973-12.644h0.716l2.973 12.644c0.194 0.827 1.022 1.339 1.849 1.145s1.339-1.022 1.145-1.849l-2.932-12.467v-5.13l0.359 1.101c0.054 0.166 0.144 0.318 0.264 0.445l2.503 2.652-0.263 0.461c-0.365 0.048-0.704 0.258-0.9 0.602-0.334 0.584-0.131 1.328 0.453 1.662s1.328 0.131 1.662-0.453c0.197-0.344 0.206-0.743 0.062-1.082l0.151-0.264c0.384 0.080 0.774-0.032 1.055-0.297 0.47-0.444 0.496-1.181 0.061-1.657l0.414-0.725c0.365-0.048 0.704-0.258 0.9-0.602 0.334-0.584 0.131-1.328-0.453-1.662z">
            </path>
        </symbol>
        <symbol id="icon-exercise-bicycle" viewBox="0 0 32 32">
            <path
                d="M27.996 7.358c-0.268-0.411-0.825-0.471-1.173-0.155-1.412 1.278-1.517 1.366-1.886 1.735l-2.010-0.277-0.204 0.552c0.255 0.532 0.292 1.146 0.098 1.706l0.401 0.055c-0.523 0.74-0.98 1.522-1.367 2.339-0.064 1.265 0.051 2.536 0.349 3.775 0.459-2.151 1.409-4.159 2.775-5.872l0.802 0.111c0.614 0.085 1.183-0.344 1.268-0.961 0.051-0.372-0.087-0.726-0.339-0.967l1.138-1.030c0.285-0.258 0.358-0.688 0.148-1.009z">
            </path>
            <path
                d="M22.004 6.416c-0.402-0.149-0.848 0.057-0.996 0.458l-0.392 1.061c0.55-0.019 1.068 0.162 1.474 0.484l0.372-1.008c0.148-0.402-0.057-0.848-0.459-0.996z">
            </path>
            <path
                d="M23.112 29.42c1.261-0.324 2.194-1.468 2.194-2.831 0-0.514-0.133-0.997-0.366-1.417-0.253-0.455-0.623-0.835-1.070-1.099l-1.926-4.924c-0.845-2.161-1.14-4.474-0.885-6.743-0.080 0.013 0.013 0.001-1.577 0.18-0.216 2.404 0.124 4.843 1.018 7.128l1.528 3.906-0.984-0.131-0.915-2.34-0.237 2.187-2.871-0.382c-0.213 0.343-0.497 0.626-0.876 0.839l0.48 0.023c0.465 0.023 0.856 0.387 0.878 0.852 0.027 0.545-0.422 0.972-0.942 0.946-0.375-0.018-2.844-0.137-3.169-0.153-0.496-0.024-0.879-0.446-0.855-0.942 0.021-0.432 0.355-0.883 1.025-0.851-0.448-0.314-0.781-0.774-0.938-1.299l-1.576-0.209 0.778-2.442c0.054-0.169 0.073-0.347 0.055-0.524l-0.266-2.675c-2.49-0.465-2.418-0.44-2.671-0.531l0.317 3.196-0.803 2.523c-2.553 0.165-4.573 2.287-4.573 4.882 0 1.432 0.615 2.72 1.595 3.615l-0.723 0.723c-0.22 0.22-0.26 0.572-0.074 0.821 0.232 0.31 0.674 0.334 0.938 0.070l0.892-0.892c0.678 0.355 1.448 0.557 2.267 0.557 0.73 0 12.789-1.864 12.789-1.864l2.163 2.196c0.24 0.244 0.633 0.247 0.877 0.007s0.247-0.633 0.007-0.877l-1.502-1.524zM11.699 26.742c-0.075 1.486-1.283 2.693-2.769 2.769-1.735 0.088-3.161-1.338-3.073-3.073 0.075-1.486 1.283-2.693 2.769-2.769 1.735-0.088 3.161 1.338 3.073 3.073z">
            </path>
            <path
                d="M17.272 0.283c-1.333-0.693-2.963-0.063-3.483 1.347-0.428 1.162 0.083 2.485 1.182 3.057 1.333 0.693 2.963 0.063 3.483-1.347 0.429-1.162-0.083-2.485-1.182-3.057z">
            </path>
            <path
                d="M20.567 9.066l-3.869 0.434-2.346-2.795c0.505 0.356 1.247 0.879 2.358 1.661l2.834-0.318c0 0-4.168-1.829-6.682-2.941-0.766-0.339-1.702 0.143-2.044 1.044-0.246 0.648-2.179 5.736-2.493 6.563-0.34 0.895-0.002 1.868 0.792 2.17 0.265 0.146 0.007 0.071 5.101 1.021l-0.609 5.624c-0.087 0.8 0.541 1.496 1.344 1.496 0.68 0 1.266-0.513 1.341-1.205l0.743-6.868c0.076-0.702-0.401-1.344-1.095-1.473l-2.143-0.4 0.536-1.295c-0.182-0.387-1.536-3.266-1.709-3.633l2.734 3.257c0.238 0.284 0.607 0.438 0.988 0.395l4.439-0.498c0.574-0.064 1.030-0.541 1.029-1.119-0.001-0.683-0.591-1.195-1.251-1.121z">
            </path>
        </symbol>
        <symbol id="icon-weightlifting" viewBox="0 0 32 32">
            <path
                d="M31.971 17.288c-0.001-0.436-0.067-0.877-0.195-1.293l-2.208-7.194c-0.235-0.764-1.041-1.196-1.807-0.97l-2.437 0.721c-0.53 0.157-0.891 0.608-0.962 1.122l2.301-0.6-3.373 1.887-2.656-1.363c-0.253 0.659-0.685 1.228-1.238 1.649l3.524 1.807c0 0 0 0 0.001 0 0.287 0.147 0.653 0.153 0.958-0.017 0-0 0.001-0 0.001-0.001l3.645-2.105-2.279 2.156 1.2 4.056-1.783 4.553c-0.073 0.188-0.1 0.391-0.076 0.591l0.641 5.399c0.080 0.672 0.689 1.152 1.361 1.072s1.152-0.689 1.072-1.361l-0.605-5.094 1.835-4.688 0.629-0.186 0.028 10.116c0.002 0.675 0.55 1.222 1.225 1.222 0.001 0 0.002 0 0.003 0 0.677-0.002 1.224-0.552 1.222-1.228-0-0.087-0.018-6.902-0.029-10.252z">
            </path>
            <path
                d="M27.918 5.358c0 1.174-0.952 2.126-2.126 2.126s-2.126-0.952-2.126-2.126c0-1.174 0.952-2.126 2.126-2.126s2.126 0.952 2.126 2.126z">
            </path>
            <path
                d="M19.018 18.159c-0.004-0.522-0.369-0.986-0.904-1.093v-5.186c-0.314 0.086-0.644 0.132-0.985 0.132s-0.671-0.046-0.985-0.132v5.227l-5.906 0.218-1.103-2.944c-0.145-0.387-0.487-0.666-0.896-0.731s-0.82 0.096-1.077 0.42l-4.473 5.635c-0.394 0.496-0.311 1.218 0.185 1.611s1.218 0.311 1.612-0.185l3.212-4.046 1.24 3.289c0.282 0.747 0.998 1.24 1.797 1.237l7.182-0.032c0.621-0.004 1.122-0.511 1.117-1.132l-0.017-2.288z">
            </path>
            <path
                d="M24.271 19.383c0 1.174-0.952 2.125-2.125 2.125s-2.125-0.952-2.125-2.125c0-1.174 0.952-2.125 2.125-2.125s2.125 0.952 2.125 2.125z">
            </path>
            <path
                d="M17.13 5.362c-1.6 0-2.897 1.297-2.897 2.897s1.297 2.897 2.897 2.897c1.6 0 2.897-1.297 2.897-2.897s-1.297-2.897-2.897-2.897zM17.13 9.847c-0.876 0-1.588-0.713-1.588-1.588s0.712-1.588 1.588-1.588 1.588 0.713 1.588 1.588c0 0.876-0.712 1.588-1.588 1.588z">
            </path>
            <path
                d="M17.13 7.385c-0.482 0-0.874 0.392-0.874 0.874s0.392 0.874 0.874 0.874c0.482 0 0.874-0.392 0.874-0.874s-0.392-0.875-0.874-0.875z">
            </path>
            <path
                d="M22.829 22.739h-21.936c-0.493 0-0.892 0.399-0.892 0.892s0.399 0.892 0.892 0.892h21.936c0.493 0 0.892-0.399 0.892-0.892s-0.399-0.892-0.892-0.892z">
            </path>
        </symbol>
        <symbol id="icon-running" viewBox="0 0 32 32">
            <path
                d="M20.756 2.736c0 1.511-1.225 2.736-2.736 2.736s-2.736-1.225-2.736-2.736c0-1.511 1.225-2.736 2.736-2.736s2.736 1.225 2.736 2.736z">
            </path>
            <path
                d="M31.023 10.436c-0.138-0.591-0.729-0.958-1.32-0.82l-7.984 1.863c-0.591 0.138-0.958 0.729-0.82 1.32 0.036 0.155 0.104 0.295 0.195 0.414l-3.746-0.963-1.55-4.453 2.245 3.353 0.812-2.128c0.364-0.954-0.114-2.022-1.068-2.386l-3.178-1.217c-0.339-0.13-0.706-0.171-1.066-0.12l-5.176 0.734c-0.401 0.057-0.748 0.306-0.931 0.667s-0.178 0.788 0.013 1.145l2.549 4.766-1.022 2.791c-0.15 0.328-0.179 0.712-0.050 1.079l0.927 2.639-3.865-0.422c-0.793-0.086-1.506 0.486-1.592 1.279s0.486 1.506 1.279 1.592l6.144 0.67c0.492 0.054 0.979-0.148 1.288-0.538s0.396-0.908 0.232-1.376l-1.321-3.763 3.076 4.778-2.179 6.137c-0.208 0.587-0.013 1.218 0.44 1.594h-10.94c-0.809 0-1.465 0.656-1.465 1.465s0.656 1.465 1.465 1.465h22.999c0.809 0 1.465-0.656 1.465-1.465s-0.656-1.465-1.465-1.465h-0.963l4.575-17.021c0.002-0.007 0.003-0.013 0.004-0.020l1.174-0.274c0.591-0.138 0.958-0.729 0.82-1.32zM11.17 9.543l-0.698-1.306 1.266-0.18-0.567 1.486zM21.416 29.070h-6.218c0.193-0.16 0.348-0.373 0.438-0.627l2.415-6.801c0.149-0.419 0.096-0.884-0.143-1.259l-2.119-3.328 0.493-1.291-0.491-0.126c-1.069-0.275-1.686-1.213-1.75-1.822l-0.528-5.041c1.83 5.257 1.716 4.934 1.739 4.99 0.14 0.332 0.417 0.588 0.76 0.699 0.058 0.019-0.255-0.063 4.872 1.255h0c0.595 0.153 1.204-0.153 1.444-0.703 0.209-0.478 0.095-1.018-0.26-1.374 0.050-0.005 0.101-0.012 0.151-0.023 1.613-0.376 1.938-0.452 3.574-0.834l-4.377 16.286z">
            </path>
        </symbol>
        <symbol id="icon-exercise" viewBox="0 0 32 32">
            <path
                d="M5.228 9.268c0 1.313-1.064 2.377-2.377 2.377s-2.377-1.064-2.377-2.377c0-1.313 1.064-2.377 2.377-2.377s2.377 1.064 2.377 2.377z">
            </path>
            <path
                d="M31.144 16.314c-0.516-0.198-1.101-0.059-1.471 0.351-0.283 0.313-2.363 2.616-2.669 2.955l-15.503-2.811c-0.214-0.413-0.69-0.641-1.161-0.523-0.405 0.102-3.178 0.799-3.617 0.909l-2.661-3.116 2.711 2.202 0.884-0.222-0.284-1.097 1.022 0.911 1.732-0.435c0.691-0.174 1.389 0.056 1.846 0.539l1.008 0.183c0.111-0.166 0.175-0.366 0.173-0.581-0.006-0.567-0.473-1.020-1.038-1.017l-2.080 0.022-2.601-2.325c-0.355-0.318-0.842-0.445-1.308-0.342l-4.055 0.895c-0.798 0.184-1.296 0.98-1.112 1.778l1.807 7.848h-1.429c-0.738 0-1.336 0.598-1.336 1.336s0.598 1.336 1.336 1.336c2.136 0 28.481 0 29.328 0 0.738 0 1.336-0.598 1.336-1.336v-6.213c0-0.553-0.34-1.049-0.856-1.247zM8.296 22.438l3.901-2.899 3.032 2.899h-6.933zM24.459 22.438h-5.265c-0.003-0.003-0.006-0.007-0.009-0.010l-2.519-2.408-5.368-0.974c0 0-1.74 0.452-4.788 1.222-0.649 0.163-1.305-0.142-1.614-0.701l-2.105-3.811 2.782 3.258c0.254 0.297 0.654 0.424 1.032 0.329 0.367-0.092 3.859-0.97 4.235-1.065 0.133-0.033 0.252-0.091 0.356-0.168l14.754 2.675c-0.546 0.605-0.51 0.565-1.491 1.651z">
            </path>
        </symbol>
        <symbol id="icon-weightlifting-svg" viewBox="0 0 32 32">
            <path
                d="M18.512 11.968c0 1.388-1.125 2.514-2.514 2.514s-2.514-1.125-2.514-2.514c0-1.388 1.125-2.514 2.514-2.514s2.514 1.125 2.514 2.514z">
            </path>
            <path d="M12.623 28.049v1.16h-0c0 0.841 0.682 1.523 1.522 1.523s1.523-0.682 1.523-1.523v-1.16h-3.045z">
            </path>
            <path d="M16.325 28.049v1.16h-0c0 0.841 0.682 1.523 1.523 1.523s1.523-0.682 1.523-1.523v-1.16h-3.045z">
            </path>
            <path
                d="M18.626 2.629c0 1.452-1.177 2.629-2.629 2.629s-2.629-1.177-2.629-2.629c0-1.452 1.177-2.629 2.629-2.629s2.629 1.177 2.629 2.629z">
            </path>
            <path d="M17.481 25.709h-2.959l-3.088 1.358h9.135z"></path>
            <path
                d="M27.316 13.432h-0.642c0-1.202 0-0.942 0-2.151 0-0.222-0.18-0.403-0.403-0.403h-1.1c-0.222 0-0.403 0.18-0.403 0.403 0 1.209 0 0.949 0 2.151h-1.407c0.038-0.396-0.137-0.764-0.43-0.991h0.855l0.014-1.348-1.046-0.863-2.635-3.448c-0.305-0.4-0.78-0.634-1.283-0.633l-5.68 0.008c-0.501 0.001-0.974 0.235-1.278 0.633l-2.665 3.485-0.998 0.998c0 0.003 0 0.006 0 0.008v1.16h0.859c-0.294 0.227-0.468 0.595-0.431 0.991h-1.41c0-1.202 0-0.942 0-2.151 0-0.222-0.18-0.403-0.403-0.403h-1.1c-0.222 0-0.403 0.18-0.403 0.403 0 1.209 0 0.949 0 2.151h-0.642c-0.421 0-0.762 0.341-0.762 0.762s0.341 0.762 0.762 0.762h0.642c0 1.202 0 0.942 0 2.151 0 0.222 0.18 0.403 0.403 0.403h1.1c0.223 0 0.403-0.18 0.403-0.403 0-1.209 0-0.949 0-2.151h1.571c0.048 0.456 0.389 3.682 0.44 4.159 0.101 0.957 1.307 1.362 1.956 0.619 0.746-0.854 0.682-0.781 1.573-1.8v4.283c-0.423 0.172-3.598 1.462-4.071 1.654-0.475 0.193-0.814 0.622-0.891 1.129l-0.812 5.324c-0.121 0.795 0.425 1.537 1.219 1.658s1.537-0.425 1.658-1.219l0.688-4.507c0.704-0.286 3.035-1.233 3.766-1.53h3.343c1.596 0.648 3.632 1.476 3.766 1.53l0.688 4.507c0.122 0.796 0.867 1.34 1.658 1.219 0.794-0.121 1.341-0.864 1.219-1.658l-0.812-5.324c-0.077-0.507-0.416-0.936-0.891-1.129-0.653-0.265-3.665-1.489-4.103-1.667v-4.308c1.069 1.223 0.632 0.723 1.607 1.839 0.636 0.728 1.853 0.359 1.956-0.619 0.050-0.477 0.392-3.703 0.44-4.159h1.567c0 1.202 0 0.942 0 2.151 0 0.222 0.18 0.403 0.403 0.403h1.1c0.222 0 0.403-0.18 0.403-0.403 0-1.209 0-0.949 0-2.151h0.642c0.421-0 0.762-0.341 0.762-0.762s-0.341-0.762-0.762-0.762zM11.2 16.332c-0.061-0.573-0.050-0.468-0.145-1.374h1.346c-0.488 0.558-0.706 0.808-1.201 1.374zM20.803 16.332c-0.499-0.571-0.707-0.809-1.201-1.374h1.346c-0.113 1.067-0.085 0.804-0.145 1.374zM21.11 13.432h-1.939c-0.572 1.235-1.806 2.032-3.173 2.032-1.351 0-2.595-0.783-3.173-2.032h-1.931c-0.024-0.228-0.027-0.699-0.501-1.026l0.415-0.415c0.037-0.037 0.187-0.192 0.219-0.233l1.597-2.090v1.393c0.4-1.489 1.762-2.589 3.376-2.589 1.574 0 2.908 1.046 3.344 2.479v-1.329l1.632 2.136c0.054 0.071 0.116 0.136 0.185 0.192l0.508 0.419c-0.519 0.315-0.531 0.804-0.558 1.062z">
            </path>
        </symbol>
        <symbol id="icon-exercise-svg" viewBox="0 0 32 32">
            <path
                d="M18.542 2.831c0 1.563-1.267 2.831-2.831 2.831s-2.831-1.267-2.831-2.831c0-1.563 1.267-2.831 2.831-2.831s2.831 1.267 2.831 2.831z">
            </path>
            <path
                d="M22.44 15.035c0.147 0.692 0.828 1.134 1.52 0.987s1.134-0.828 0.987-1.52c-0.082-0.388-0.34-0.718-0.709-0.892l-0.179-0.842c0.159-0.271 0.218-0.6 0.144-0.929-0.070-0.313-0.259-0.583-0.502-0.758l-0.204-0.959c0.26-0.302 0.369-0.709 0.285-1.104-0.147-0.692-0.828-1.134-1.52-0.987s-1.134 0.828-0.987 1.52c0.081 0.381 0.335 0.716 0.709 0.892l0.105 0.494-3.697 0.461-3.181-3.698 3.687 2.552 0.002-1.689c-0.011-1.056-0.877-1.903-1.933-1.892l-3.398 0.009c-0.426 0.001-0.844 0.112-1.214 0.323l-4.683 2.663c-0.773 0.439-0.875 1.516-0.196 2.092l4.262 3.62 0.022 2.004 0.313 5.484-1.485 7.345c-0.164 0.809 0.36 1.597 1.168 1.76s1.597-0.36 1.76-1.168l1.525-7.542c0.027-0.131 0.035-0.265 0.026-0.398l-0.305-4.442 2.002-0.022 2.537 0.559-0.243 4.647c-0.032 0.61 0.307 1.152 0.819 1.411h-2.002c-0.367 0-0.666 0.298-0.666 0.666v5.655c0 0.367 0.298 0.666 0.666 0.666h5.655c0.367 0 0.665-0.298 0.665-0.666v-5.655c0-0.367-0.298-0.666-0.665-0.666h-2.306c0.462-0.234 0.79-0.701 0.819-1.255l0.309-5.911c0.038-0.73-0.457-1.38-1.171-1.537l-2.203-0.485-0.007-0.675-0.792 0.099c-1.175 0.146-2.105-0.57-2.375-1.090l-2.421-4.652 3.513 4.083c0.273 0.317 0.697 0.49 1.131 0.436l4.598-0.573 0.101 0.477c-0.272 0.315-0.365 0.729-0.285 1.104zM10.533 10.989l1.15-0.654 0.018 1.645-1.168-0.992z">
            </path>
        </symbol>

        <symbol id="icon-download" viewBox="0 0 32 32">
            <path
                d="M12.217 3.759c-0.217 0.427-0.217 0.987-0.217 2.108v8.8h-1.596c-1.177 0-1.767 0-2.045 0.235-0.219 0.185-0.357 0.459-0.357 0.765 0 0.022 0.001 0.043 0.002 0.064l-0-0.003c0.023 0.365 0.429 0.791 1.241 1.643l5.597 5.868c0.403 0.424 0.604 0.635 0.84 0.713 0.095 0.033 0.204 0.052 0.317 0.052s0.223-0.019 0.324-0.054l-0.007 0.002c0.236-0.079 0.437-0.289 0.84-0.713l5.597-5.867c0.813-0.853 1.219-1.28 1.24-1.644 0.001-0.019 0.002-0.040 0.002-0.062 0-0.306-0.137-0.58-0.354-0.763l-0.001-0.001c-0.279-0.235-0.867-0.235-2.045-0.235h-1.596v-8.8c0-1.12 0-1.68-0.219-2.108-0.195-0.378-0.495-0.679-0.862-0.869l-0.011-0.005c-0.427-0.217-0.987-0.217-2.108-0.217h-1.6c-1.12 0-1.68 0-2.108 0.217-0.378 0.196-0.679 0.496-0.869 0.864l-0.005 0.011zM6.667 28c0 0.736 0.597 1.333 1.333 1.333v0h16c0.736 0 1.333-0.597 1.333-1.333s-0.597-1.333-1.333-1.333v0h-16c-0.736 0-1.333 0.597-1.333 1.333v0z">
            </path>
        </symbol>

        <symbol id="icon-gym" viewBox="0 0 32 32">
            <path
                d="M26.667 12v2.667c0 0.736 0.596 1.333 1.333 1.333s1.333-0.597 1.333-1.333v-2.667c0-4.707-3.505-8.6-8.040-9.233-0.195-1.555-1.511-2.767-3.119-2.767h-1.683c-1.612 0-2.931 1.219-3.12 2.781-3.361 0.551-6.019 3.196-6.585 6.552h-1.453c-0.737 0-1.333 0.597-1.333 1.333s0.596 1.333 1.333 1.333h1.333v2.667c0 0.736 0.596 1.333 1.333 1.333s1.333-0.597 1.333-1.333v-2.667h1.333c0.737 0 1.333-0.597 1.333-1.333s-0.596-1.333-1.333-1.333h-1.144c0.485-1.865 1.945-3.325 3.811-3.811v15.811h-10c-1.839-0-3.333 1.496-3.333 3.333s1.495 3.333 3.333 3.333h2v2.667c0 0.736 0.596 1.333 1.333 1.333s1.333-0.597 1.333-1.333v-2.667h5.333v0.84c0 1.743 1.416 3.16 3.159 3.16h1.683c1.743 0 3.159-1.417 3.159-3.16v-23.372c3.039 0.62 5.333 3.313 5.333 6.532z">
            </path>
            <path
                d="M24 18.667c0 0.736 0.596 1.333 1.333 1.333h5.333c0.737 0 1.333-0.597 1.333-1.333s-0.596-1.333-1.333-1.333h-5.333c-0.737-0-1.333 0.597-1.333 1.333z">
            </path>
            <path
                d="M30.667 21.333h-5.333c-0.737 0-1.333 0.597-1.333 1.333s0.596 1.333 1.333 1.333h5.333c0.737 0 1.333-0.597 1.333-1.333s-0.596-1.333-1.333-1.333z">
            </path>
            <path
                d="M30.667 25.333h-5.333c-0.737 0-1.333 0.597-1.333 1.333s0.596 1.333 1.333 1.333h5.333c0.737 0 1.333-0.597 1.333-1.333s-0.596-1.333-1.333-1.333z">
            </path>
        </symbol>

        <symbol id="icon-stationary-bicycle-gymnast" viewBox="0 0 32 32">
            <path
                d="M32 18.254c0-3.708-2.719-6.784-6.267-7.361l-0.929-4.372h0.813c0.075 1.081 0.439 2.125 1.861 2.513 0.273 0.075 0.554 0.111 0.842 0.111 0.454 0 0.92-0.093 1.38-0.276l1.964-0.786c0.274-0.109 0.407-0.419 0.298-0.693-0.109-0.273-0.422-0.406-0.693-0.297l-1.964 0.785c-0.525 0.211-1.073 0.255-1.545 0.127-0.692-0.189-0.993-0.588-1.070-1.484h0.51c0.588 0 1.067-0.478 1.067-1.067v-1.067c0-0.588-0.478-1.067-1.067-1.067h-6.933c-0.588 0-1.067 0.478-1.067 1.067v1.067c0 0.588 0.478 1.067 1.067 1.067h0.643l1.090 4.71c-1.857 0.667-3.393 2.055-4.244 3.917l-8.824-0.57-1.851-7.524h0.826c0.934 0 1.694-0.76 1.694-1.743 0-0.794-0.54-1.473-1.313-1.651l-4.64-1.070c-0.5-0.115-1.015 0.002-1.417 0.321s-0.631 0.796-0.631 1.308v1.163c0 0.922 0.75 1.672 1.672 1.672h0.041l0.258 1.067h-3.037c-0.294 0-0.533 0.239-0.533 0.533s0.239 0.533 0.533 0.533h0.533v0.533c0 0.294 0.239 0.533 0.533 0.533s0.533-0.239 0.533-0.533v-0.533h1.695l1.513 6.269c-0.979 0.782-1.608 1.984-1.608 3.331 0 1.031 0.367 1.977 0.979 2.716l-2.375 4.751h-0.211c-0.878 0-1.593 0.715-1.593 1.607 0 0.878 0.715 1.593 1.593 1.593h27.214c0.878 0 1.593-0.715 1.593-1.607 0-0.878-0.715-1.593-1.593-1.593h-0.345l-0.374-1.759c2.032-1.336 3.379-3.632 3.379-6.241zM8 16.654c1.177 0 2.133 0.957 2.133 2.133s-0.957 2.133-2.133 2.133-2.133-0.957-2.133-2.133 0.957-2.133 2.133-2.133zM6.212 26.254l1.667-3.206c0.041 0.002 0.080 0.006 0.121 0.006 0.315 0 0.638-0.038 0.909-0.104l9.054-1.174c1.293 2.407 3.829 3.944 6.57 3.944 0.184 0 0.365-0.014 0.546-0.028l0.119 0.561h-18.986zM27.728 23.791c-0.157 0.091-0.318 0.174-0.481 0.251-0.022 0.010-0.044 0.022-0.066 0.032-0.17 0.077-0.343 0.147-0.519 0.209-0.016 0.005-0.031 0.012-0.047 0.017-0.187 0.065-0.378 0.121-0.571 0.167-0.004 0-0.007 0.002-0.010 0.003-0.2 0.048-0.403 0.086-0.608 0.115h-0.001c-0.293 0.041-0.589 0.070-0.892 0.070-2.212 0-4.269-1.166-5.428-3.025l5.464-0.708c1.454-0.020 2.63-1.209 2.63-2.667 0-0.183-0.019-0.362-0.054-0.535-0.248-1.214-1.321-2.13-2.577-2.13h-0.002l-5.665-0.366c0.821-1.532 2.207-2.641 3.84-3.114 0.011-0.003 0.022-0.002 0.033-0.005 0.579-0.165 1.17-0.25 1.757-0.25 0.222 0 0.45 0.013 0.695 0.039 3.203 0.348 5.705 3.067 5.705 6.361 0 2.365-1.292 4.429-3.205 5.537z">
            </path>
            <path
                d="M8 19.854c0.588 0 1.067-0.478 1.067-1.067s-0.478-1.067-1.067-1.067-1.067 0.478-1.067 1.067c0 0.588 0.478 1.067 1.067 1.067z">
            </path>
        </symbol>

        <symbol id="icon-running-gym" viewBox="0 0 32 32">
            <path
                d="M28.267 22.012h-19.658l1.422-10.667h0.34c1.004 0 1.991-0.426 2.781-1.199 0.317-0.31 0.707-0.548 1.127-0.689 0.491-0.163 1.002-0.246 1.518-0.246h1.647c0.673 0 1.221-0.548 1.221-1.221v-0.758c0-0.673-0.548-1.221-1.221-1.221h-6.35c-0.377 0-0.723-0.221-0.879-0.561l-1.972-4.35c-0.138-0.303-0.387-0.531-0.7-0.643s-0.651-0.091-0.948 0.059l-0.922 0.461c-0.58 0.29-0.829 0.982-0.567 1.575l1.793 4.058-1.014 4.060c0 0-0 0-0 0.001l-1.929 7.074h2.444c0.295 0 0.533 0.239 0.533 0.533s-0.238 0.533-0.533 0.533h-2.734l-0.291 1.067h2.492c0.295 0 0.533 0.239 0.533 0.533s-0.238 0.533-0.533 0.533h-2.784l-0.327 1.201c-1.585 0.431-2.756 1.879-2.756 3.599 0 2.059 1.675 3.733 3.733 3.733h24.533c2.058 0 3.733-1.675 3.733-3.733s-1.675-3.733-3.733-3.733zM3.733 28.412c-1.47 0-2.667-1.196-2.667-2.667s1.196-2.667 2.667-2.667c1.47 0 2.667 1.196 2.667 2.667s-1.196 2.667-2.667 2.667zM10.133 26.279h-1.067c-0.295 0-0.533-0.239-0.533-0.533s0.238-0.533 0.533-0.533h1.067c0.295 0 0.533 0.239 0.533 0.533s-0.238 0.533-0.533 0.533zM13.333 26.279h-1.067c-0.295 0-0.533-0.239-0.533-0.533s0.238-0.533 0.533-0.533h1.067c0.295 0 0.533 0.239 0.533 0.533s-0.238 0.533-0.533 0.533zM16.533 26.279h-1.067c-0.295 0-0.533-0.239-0.533-0.533s0.238-0.533 0.533-0.533h1.067c0.295 0 0.533 0.239 0.533 0.533s-0.238 0.533-0.533 0.533zM19.733 26.279h-1.067c-0.295 0-0.533-0.239-0.533-0.533s0.238-0.533 0.533-0.533h1.067c0.295 0 0.533 0.239 0.533 0.533s-0.238 0.533-0.533 0.533zM22.933 26.279h-1.067c-0.295 0-0.533-0.239-0.533-0.533s0.238-0.533 0.533-0.533h1.067c0.295 0 0.533 0.239 0.533 0.533s-0.238 0.533-0.533 0.533zM28.267 28.412c-1.47 0-2.667-1.196-2.667-2.667s1.196-2.667 2.667-2.667c1.47 0 2.667 1.196 2.667 2.667s-1.196 2.667-2.667 2.667z">
            </path>
            <path
                d="M4.267 31.079c0 0.294 0.239 0.533 0.533 0.533h5.867c0.294 0 0.533-0.239 0.533-0.533v-0.533h-6.933v0.533z">
            </path>
            <path
                d="M24.533 31.098c0 0.283 0.23 0.514 0.514 0.514h2.173c0.283 0 0.514-0.23 0.514-0.514v-0.553h-3.2v0.553z">
            </path>
        </symbol>

        <symbol id="icon-dumbbell-weight" viewBox="0 0 32 32">
            <path
                d="M31.285 23.402l-0.088-0.088c-0.326-0.326-0.723-0.532-1.139-0.636 0.352-0.434 0.553-0.967 0.553-1.537 0-0.658-0.254-1.275-0.718-1.738s-1.080-0.718-1.738-0.718-1.276 0.255-1.738 0.718l-0.869 0.869-13.905-13.905 0.869-0.869c0.463-0.463 0.718-1.080 0.718-1.738s-0.255-1.275-0.718-1.738c-0.462-0.463-1.079-0.718-1.738-0.718-0.57 0-1.102 0.202-1.537 0.553-0.104-0.417-0.31-0.813-0.635-1.139-0.959-0.958-2.517-0.958-3.476 0l-4.345 4.345c-0.958 0.958-0.958 2.518 0 3.476 0.325 0.326 0.722 0.531 1.139 0.635-0.352 0.435-0.552 0.967-0.552 1.537 0 0.659 0.254 1.276 0.718 1.738s1.080 0.718 1.738 0.718c0.658 0 1.275-0.255 1.738-0.718l0.869-0.869 13.905 13.905-0.869 0.869c-0.463 0.463-0.718 1.080-0.718 1.738s0.255 1.275 0.718 1.738c0.463 0.463 1.080 0.718 1.738 0.718 0.57 0 1.102-0.201 1.538-0.553 0.104 0.417 0.31 0.814 0.635 1.14l0.235 0.234c0.4 0.401 0.934 0.621 1.503 0.621 0.57 0 1.103-0.221 1.504-0.621l4.669-4.668c0.91-0.91 0.91-2.39-0-3.3zM4.69 11.582c-0.462 0.461-1.278 0.461-1.738 0-0.231-0.231-0.358-0.54-0.358-0.87s0.127-0.638 0.358-0.869l6.952-6.952c0.231-0.231 0.54-0.358 0.869-0.358s0.638 0.127 0.869 0.358c0.231 0.23 0.358 0.539 0.358 0.869s-0.127 0.638-0.358 0.869l-6.952 6.953zM29.024 22.011l-6.953 6.952c-0.462 0.462-1.278 0.461-1.738 0-0.231-0.23-0.358-0.539-0.358-0.869s0.127-0.638 0.358-0.87l6.952-6.952c0.231-0.231 0.54-0.358 0.87-0.358s0.638 0.127 0.869 0.358c0.231 0.23 0.358 0.539 0.358 0.869s-0.127 0.638-0.358 0.869z">
            </path>
            <path
                d="M22.097 15.084l3.451-3.451 0.869 0.869c0.463 0.463 1.080 0.718 1.738 0.718s1.275-0.255 1.738-0.718 0.718-1.080 0.718-1.738c0-0.57-0.202-1.102-0.553-1.537 0.417-0.104 0.814-0.31 1.14-0.636l0.085-0.086c0.911-0.911 0.911-2.392 0-3.303l-4.432-4.432c-0.959-0.957-2.517-0.959-3.476 0-0.325 0.325-0.53 0.722-0.635 1.139-0.435-0.352-0.968-0.553-1.538-0.553-0.658 0-1.275 0.255-1.738 0.718s-0.718 1.080-0.718 1.738 0.255 1.275 0.718 1.738l0.869 0.869-3.451 3.451 5.214 5.214zM19.976 3.812c0-0.33 0.127-0.638 0.358-0.87s0.539-0.358 0.869-0.358c0.329 0 0.638 0.127 0.869 0.358l1.303 1.303c0 0.001 0 0.001 0.001 0.001l5.649 5.649c0.231 0.231 0.358 0.54 0.358 0.869s-0.127 0.638-0.358 0.87c-0.46 0.461-1.277 0.461-1.738 0l-6.952-6.953c-0.231-0.23-0.358-0.539-0.358-0.869z">
            </path>
            <path
                d="M9.931 16.822l-3.502 3.502-0.869-0.869c-0.463-0.463-1.080-0.718-1.738-0.718s-1.275 0.255-1.738 0.718c-0.463 0.463-0.718 1.080-0.718 1.738 0 0.57 0.202 1.102 0.553 1.537-0.417 0.104-0.814 0.31-1.139 0.635l-0.049 0.049c-0.931 0.932-0.931 2.448 0 3.379l4.556 4.555c0.42 0.42 0.98 0.651 1.576 0.651s1.156-0.232 1.576-0.651l0.162-0.162c0.325-0.326 0.53-0.722 0.635-1.139 0.435 0.352 0.968 0.553 1.537 0.553 0.658 0 1.275-0.255 1.738-0.718s0.718-1.080 0.718-1.738-0.255-1.275-0.718-1.738l-0.869-0.869 3.502-3.502-5.214-5.214zM12 28.145c0 0.33-0.127 0.638-0.358 0.87-0.46 0.461-1.276 0.461-1.738 0l-1.303-1.303c0-0.001-0.001-0.001-0.001-0.001l-5.649-5.649c-0.231-0.231-0.358-0.54-0.358-0.869s0.127-0.639 0.358-0.87c0.23-0.231 0.539-0.358 0.869-0.358s0.638 0.127 0.869 0.358l6.953 6.953c0.231 0.23 0.358 0.539 0.358 0.869z">
            </path>
        </symbol>

        <symbol id="icon-man-answering-phone-call" viewBox="0 0 32 32">
            <path d="M30.265 19.702h-19.862v1.476h1.429v10.792h1.494v-10.792h15.446v10.792h1.493v-10.792h1.705v-1.476z">
            </path>
            <path
                d="M10.333 4.582c0 2.531-2.052 4.582-4.582 4.582s-4.582-2.052-4.582-4.582c0-2.531 2.052-4.582 4.582-4.582s4.582 2.052 4.582 4.582z">
            </path>
            <path
                d="M9.743 21.87l-0.091-1.804h0.301l0.403-7.858 2.534-0.452c0.024 0.043 0.048 0.087 0.072 0.13 0.156 0.278 0.311 0.557 0.455 0.826 0.267 0.5 0.28 1.287 0.295 2.12 0.024 1.383 0.049 2.813 1.219 3.289 0.833 0.34 1.523 0.495 2.156 0.528v0.741h5.821v-2.801h-0.361v-0.731h-4.767v0.731h-0.693v1.82c-0.603-0.033-1.261-0.185-2.065-0.514-1.021-0.415-1.044-1.763-1.066-3.068-0.015-0.862-0.029-1.678-0.322-2.229-0.145-0.271-0.301-0.551-0.458-0.83-0.011-0.019-0.022-0.039-0.032-0.059l3.391-0.605-1.178-5.976-0.901 0.33c0.144-0.899 0.162-1.806 0.104-2.517-0.111-1.339-0.745-2.087-1.961-2.451-0.091-0.027-0.198-0.025-0.26 0.062-0.014 0.021-0.128 0.076-0.227 0.151-0.030 0.013-0.059 0.033-0.084 0.067-0.006 0.010-0.015 0.027-0.021 0.040-0.004 0.003-0.007 0.006-0.008 0.008-0.003 0.005-0.003 0.009-0.005 0.015-0.201 0.417-0.574 2.129-0.218 2.352 0.159 0.101 0.209 0.153 0.387 0.157 0.699 0.023 0.696 0.493 0.587 1.139-0.143 0.83-0.106 2.020-1.201 1.742-0.076-0.020-0.154 0.025-0.203 0.079-0.397 0.432-0.859 1.518-0.687 2.289 0.116 0.515 0.595 0.616 1.087 0.547 0.021 0.149 0.064 0.312 0.118 0.48l-1.864 0.234h-2.581l-1.746 2.026-1.69-2.026-3.713 0.675-0.236 8.251h1.574l0.063 1.288h0.172l-0.009 1.77-0.149 8.446h-0.616v1.719h4.557v-1.719h-0.621l-0.010-8.653 1.55-0.017-0.050 8.667h-0.616v1.72h4.557v-1.72h-0.62l-0.071-8.409zM11.983 9.094c0.275-0.069 0.54-0.178 0.724-0.295 0.418-0.265 0.749-0.648 1.011-1.098l0.37 1.642-1.982 0.246c-0.060-0.177-0.105-0.345-0.123-0.496z">
            </path>
        </symbol>

        <symbol id="icon-pay-offer-savings-make-payment" viewBox="0 0 32 32">
            <path
                d="M25.634 7.96c-3.389 0-6.108 2.755-6.108 6.144 0 3.37 2.736 6.106 6.108 6.106 3.37 0 6.125-2.736 6.125-6.125s-2.736-6.125-6.125-6.125zM26.093 17.426v0.96h-0.845v-0.93c-0.731 0-1.469-0.194-1.825-0.392l0.309-1.239c0.392 0.194 1.009 0.422 1.661 0.422 0.7 0 1.045-0.307 1.045-0.73 0-0.424-0.332-0.599-1.142-0.912-1.122-0.393-1.824-0.96-1.824-1.969 0-0.931 0.616-1.661 1.746-1.891v-1.009h0.845v0.96c0.701 0 1.209 0.145 1.582 0.345l-0.344 1.207c-0.279-0.114-0.731-0.307-1.354-0.307s-0.96 0.307-0.96 0.616c0 0.422 0.392 0.586 1.239 0.93 1.152 0.422 1.691 1.009 1.691 1.969 0 0.961-0.586 1.691-1.825 1.97zM23.875 21.5h-5.875v-5.25c0-2.558-2.235-4.625-4.75-4.625h-7.875c-2.761 0-5.126 2.393-5.125 4.75v9.625c-0.004 1.066 0.75 1.624 1.5 1.625 0.751 0.001 1.5-0.556 1.5-1.625v-9.375h1v11h9.75v-11h1l0.010 6.296c-0.006 1.091 0.668 1.556 1.365 1.579h7.5c2.045 0 2.045-3 0-3zM9.252 4.375c-1.804 0-3.237 1.445-3.237 3.237s1.445 3.239 3.237 3.239c1.781 0 3.226-1.435 3.239-3.239 0-1.793-1.446-3.237-3.239-3.237z">
            </path>
        </symbol>

        <symbol id="icon-medal-triangular-edges" viewBox="0 0 32 32">
            <path
                d="M28.656 1.194h-3.79c-0.349-0.705-1.070-1.194-1.906-1.194h-13.918c-0.839 0-1.559 0.489-1.907 1.194h-3.79c-0.52 0-0.939 0.423-0.939 0.94s0.419 0.94 0.939 0.94h3.803c0.35 0.701 1.056 1.194 1.894 1.194h6.179c0.012 1.101 0.039 2.662 0.076 4.040-0.307 0.208-0.595 0.538-0.839 1.023l-0.863 1.727-1.611-1.064c-1.581-1.044-2.782-0.35-2.667 1.543l0.115 1.925-1.926-0.115c-1.89-0.112-2.583 1.087-1.54 2.669l1.064 1.61-1.727 0.864c-1.694 0.848-1.694 2.233 0 3.081l1.727 0.864-1.064 1.61c-1.044 1.581-0.351 2.781 1.54 2.67l1.927-0.118-0.115 1.928c-0.114 1.89 1.086 2.584 2.667 1.54l1.611-1.063 0.863 1.728c0.849 1.694 2.234 1.694 3.082 0l0.864-1.728 1.61 1.063c1.582 1.045 2.782 0.351 2.67-1.54l-0.117-1.928 1.927 0.118c1.89 0.112 2.583-1.089 1.541-2.67l-1.063-1.61 1.727-0.865c1.693-0.847 1.693-2.232 0-3.080l-1.727-0.864 1.063-1.61c1.043-1.583 0.35-2.781-1.541-2.669l-1.927 0.115 0.117-1.925c0.112-1.893-1.088-2.586-2.67-1.543l-1.61 1.064-0.864-1.727c-0.243-0.484-0.532-0.815-0.838-1.023 0.039-1.377 0.065-2.939 0.077-4.040h6.179c0.837 0 1.558-0.489 1.906-1.194h3.79c0.521 0 0.94-0.421 0.94-0.94s-0.419-0.94-0.938-0.94zM23.782 20.029c0 4.299-3.482 7.779-7.781 7.779s-7.781-3.482-7.781-7.779c0-4.297 3.483-7.78 7.781-7.78s7.781 3.483 7.781 7.78z">
            </path>
            <path
                d="M8.706 20.029c0 4.022 3.273 7.295 7.295 7.295s7.295-3.273 7.295-7.295-3.273-7.295-7.295-7.295c-4.022-0-7.295 3.273-7.295 7.295zM22.903 20.029c0 3.805-3.096 6.9-6.901 6.9s-6.901-3.095-6.901-6.9 3.096-6.901 6.901-6.901c3.805 0 6.901 3.096 6.901 6.901z">
            </path>
            <path
                d="M15.145 19.732c-0.348-1.177-1.102-2.008-1.847-2.068l-0.285 0.013-0.017 0.004-0.051 0.013-0.030 0.009-0.064 0.020-0.027 0.011-0.042 0.019-0.029 0.012-0.056 0.029-0.031 0.019-0.035 0.021-0.027 0.019c-0.235 0.075-0.423 0.306-0.549 0.64l-0.18 0.198c-0.125 0.034-0.239 0.103-0.337 0.206-0.161 0.108-0.277 0.348-0.341 0.672-0.082 0.291-0.116 0.638-0.095 1.008-0.303 0.067-0.603 0.133-0.906 0.2l0.001 0.002c-0.101 0.042-0.144 0.249-0.1 0.48 0.048 0.246 0.178 0.428 0.291 0.406l0.018-0.007c0.285-0.064 0.57-0.127 0.854-0.19 0.13 0.431 0.326 0.794 0.552 1.041 0.118 0.148 0.244 0.246 0.367 0.285l0.301 0.073c0.111 0.118 0.228 0.198 0.344 0.234l0.261 0.079c0.128 0.11 0.259 0.186 0.388 0.222 0.22 0.096 0.444 0.127 0.665 0.087 0.868-0.169 1.367-1.429 1.183-2.894l0.021-0.004 0.007 0.007 0.011-0.001-0.007-0.008 0.024-0.004-0.012 0.010 0.011-0.003 0.011-0.009 0.036-0.009 0.005 0.007 0.008-0.002-0.003-0.004 0.033-0.008-0.010 0.010 0.010-0.002 0.011-0.010 0.026-0.004 0.005 0.006 0.009-0.001-0.005-0.007 0.040-0.009-0.011 0.011 0.010-0.003 0.012-0.011 0.014-0.002 0.007 0.008 0.008-0.003-0.005-0.007 0.052-0.011-0.009 0.011 0.009-0.004 0.009-0.007 0.005-0.002 0.004 0.004h0.009l-0.004-0.008 0.063-0.011-0.010 0.007 0.011-0.001 0.006-0.006 0.002 0.002 0.010-0.001-0.004-0.007 0.070-0.016h0.001l-0.008 0.009 0.010-0.004h0.012l-0.005-0.005 0.001-0.002 0.065-0.014 0.003 0.006h0.001l0.011-0.002 0.009-0.008 0.055-0.012 0.003 0.006 0.008-0.001 0.011-0.003 0.008-0.007 0.046-0.010 0.002 0.004 0.010-0.002-0.002-0.002 0.022-0.007-0.007 0.007 0.009-0.002 0.009-0.007 0.037-0.008 0.002 0.006 0.010-0.004-0.003-0.003 0.029-0.006-0.009 0.006 0.011-0.002 0.007-0.006 0.030-0.007 0.003 0.003 0.009-0.002-0.002-0.002 0.039-0.010-0.007 0.008 0.009-0.001 0.008-0.009 0.019-0.002 0.002 0.002h0.008v-0.002l0.049-0.013-0.006 0.004h0.010l0.006-0.006 0.006-0.002 0.002 0.002h0.011l-0.002-0.003 0.059-0.013-0.006 0.004 0.010-0.001 0.004-0.004 0.001 0.002 0.009-0.002-0.001-0.002 0.070-0.017-0.007 0.004h0.009l0.009-0.002-0.001-0.002 0.068-0.016 0.002 0.003 0.009-0.002 0.004-0.003 0.059-0.012 0.002 0.002 0.009-0.001-0.002-0.002 0.010-0.002-0.004 0.003 0.011-0.001 0.002-0.004 0.049-0.009v0.002l0.009-0.002v-0.002l0.021-0.004-0.003 0.002 0.009-0.002 0.004-0.002 0.039-0.009v0.001l0.010-0.002v-0.001l0.027-0.005-0.002 0.002 0.010-0.002 0.002-0.002 0.032-0.007h0.001l0.009-0.001-0.001-0.001 0.038-0.009-0.001 0.002 0.009-0.002 0.001-0.002 0.020-0.004v0.002l0.009-0.002v-0.002l0.047-0.010-0.002 0.002 0.011-0.002 0.001-0.002 0.012-0.002 0.009-0.001v-0.001l0.056-0.011v0.002l0.009-0.002 0.002-0.002v0.001l0.010-0.002v-0.002l0.066-0.013 0.009-0.002h0.004l0.070-0.016 0.008-0.001 0.009-0.001 0.194-0.043c0.374 1.257 1.107 2.134 1.743 2.021l0.037-0.007c0.137 0.026 0.275 0.029 0.413 0.004 0.455-0.080 0.811-0.444 1.018-0.97l0.209-0.219c0.434-0.216 0.674-0.9 0.594-1.693 0.116-0.026 0.231-0.051 0.345-0.076 0.131-0.273 0.038-0.694-0.196-0.885-0.12 0.026-0.242 0.054-0.363 0.080-0.243-0.594-0.659-1.001-1.070-1.047l-0.095-0.004-0.154-0.072c-0.432-0.507-0.96-0.78-1.465-0.69l-0.042 0.009-0.013 0.002c-0.154 0.026-0.296 0.084-0.427 0.168-0.601 0.176-0.896 1.241-0.719 2.517-0.717 0.147-1.442 0.304-2.167 0.462zM15.899 20.473l-0.001-0.001 0.004-0.001-0.003 0.002zM15.979 20.46l-0.002-0.004 0.010-0.002-0.008 0.007z">
            </path>
        </symbol>

        <symbol id="icon-calendar-date-schedule" viewBox="0 0 32 32">
            <path
                d="M29 11v13.009c0 1.326-0.527 2.598-1.464 3.535-0.938 0.938-2.21 1.465-3.536 1.465-4.439 0-11.561 0-16 0-1.326 0-2.598-0.527-3.536-1.465s-1.464-2.209-1.464-3.535v-13.009h26zM9 24h2c0.552 0 1-0.448 1-1s-0.448-1-1-1h-2c-0.552 0-1 0.448-1 1s0.448 1 1 1zM15 24h2c0.552 0 1-0.448 1-1s-0.448-1-1-1h-2c-0.552 0-1 0.448-1 1s0.448 1 1 1zM21 24h2c0.552 0 1-0.448 1-1s-0.448-1-1-1h-2c-0.552 0-1 0.448-1 1s0.448 1 1 1zM9 20h2c0.552 0 1-0.448 1-1s-0.448-1-1-1h-2c-0.552 0-1 0.448-1 1s0.448 1 1 1zM15 20h2c0.552 0 1-0.448 1-1s-0.448-1-1-1h-2c-0.552 0-1 0.448-1 1s0.448 1 1 1zM21 20h2c0.552 0 1-0.448 1-1s-0.448-1-1-1h-2c-0.552 0-1 0.448-1 1s0.448 1 1 1zM9 16h2c0.552 0 1-0.448 1-1s-0.448-1-1-1h-2c-0.552 0-1 0.448-1 1s0.448 1 1 1zM15 16h2c0.552 0 1-0.448 1-1s-0.448-1-1-1h-2c-0.552 0-1 0.448-1 1s0.448 1 1 1zM21 16h2c0.552 0 1-0.448 1-1s-0.448-1-1-1h-2c-0.552 0-1 0.448-1 1s0.448 1 1 1zM10 3.009v2.991c0 0.552-0.448 1-1 1s-1-0.448-1-1v-2.991c-1.326 0-2.598 0.527-3.536 1.464s-1.464 2.21-1.464 3.536v0.991h26v-0.991c0-1.326-0.527-2.598-1.464-3.536-0.938-0.937-2.21-1.464-3.536-1.464v2.991c0 0.552-0.448 1-1 1s-1-0.448-1-1v-2.991h-12z">
            </path>
        </symbol>

        <symbol id="icon-calendar-and-clock" viewBox="0 0 32 32">
            <path
                d="M16 8c0.803 0 1.455-0.652 1.455-1.454v-3.636c0-0.803-0.652-1.455-1.455-1.455s-1.454 0.652-1.454 1.455v0.727h-3.455v2.909h3.455c0 0.803 0.651 1.454 1.454 1.454z">
            </path>
            <path
                d="M23.818 8c0.804 0 1.455-0.652 1.455-1.454v-3.636c0-0.803-0.652-1.455-1.455-1.455-0.802 0-1.454 0.652-1.454 1.455v0.727h-3.455v2.909h3.455c0.001 0.803 0.651 1.454 1.454 1.454z">
            </path>
            <path
                d="M30.545 3.636h-3.818v2.909h2.363v4.364h-26.181v-4.364h3.818c0 0.803 0.652 1.454 1.454 1.454s1.454-0.652 1.454-1.454v-3.636c0-0.803-0.652-1.455-1.454-1.455s-1.454 0.652-1.454 1.455v0.727h-5.273c-0.803 0-1.454 0.652-1.454 1.454v21.818c0 0.804 0.652 1.455 1.454 1.455h7.472c-0.624-0.865-1.092-1.849-1.366-2.909h-4.651v-13.091h26.181v13.091h-4.65c-0.274 1.061-0.742 2.044-1.366 2.909h7.471c0.804 0 1.455-0.652 1.455-1.455v-21.818c-0.001-0.803-0.652-1.454-1.456-1.454z">
            </path>
            <path
                d="M19.448 24.5l-2.302-1.329c-0.031-0.349-0.212-0.655-0.485-0.846v-4.012c0-0.366-0.296-0.662-0.661-0.662s-0.661 0.296-0.661 0.662v4.012c-0.299 0.21-0.496 0.555-0.496 0.948 0 0.638 0.52 1.156 1.157 1.156 0.175 0 0.339-0.042 0.488-0.112l2.299 1.328c0.104 0.060 0.218 0.088 0.33 0.088 0.228 0 0.451-0.118 0.573-0.33 0.183-0.317 0.074-0.721-0.242-0.904zM16 23.768c-0.273 0-0.496-0.223-0.496-0.496 0-0.272 0.223-0.496 0.496-0.496s0.496 0.223 0.496 0.496c0 0.274-0.223 0.496-0.496 0.496z">
            </path>
            <path
                d="M16 16c-4.010 0-7.273 3.263-7.273 7.274s3.263 7.273 7.273 7.273c4.011 0 7.273-3.263 7.273-7.273s-3.262-7.274-7.273-7.274zM16 29.223c-3.281 0-5.95-2.669-5.95-5.951s2.669-5.949 5.95-5.949c3.28 0 5.949 2.669 5.949 5.949s-2.669 5.951-5.949 5.951z">
            </path>
        </symbol>
    </defs>
</svg>