<svg aria-hidden="true" style="position: absolute; width: 0; height: 0; overflow: hidden;" version="1.1"
    xmlns="http://www.w3.org/2000/svg" xmlns:xlink="http://www.w3.org/1999/xlink">
    <defs>
        <symbol id="icon-youtube-logo" viewBox="0 0 32 32">
            <path
                d="M28.834 8.343c-0.246-1.547-1.66-2.899-3.226-3.079-2.883-0.332-6.224-0.522-9.608-0.522-3.387 0-6.729 0.19-10.018 0.559l0.404-0.037c-1.56 0.179-2.974 1.531-3.221 3.084-0.37 2.3-0.582 4.951-0.582 7.651 0 2.703 0.212 5.356 0.62 7.944l-0.037-0.286c0.246 1.547 1.661 2.899 3.226 3.078 2.881 0.332 6.22 0.522 9.603 0.522 0.002 0 0.004 0 0.006 0h-0c0.002 0 0.004 0 0.006 0 3.383 0 6.721-0.19 10.006-0.559l-0.398 0.036c1.56-0.179 2.975-1.531 3.221-3.084 0.37-2.3 0.582-4.951 0.582-7.651 0-2.703-0.212-5.356-0.62-7.943l0.037 0.286zM26.859 23.343c-0.103 0.646-0.817 1.328-1.47 1.404-2.817 0.325-6.081 0.51-9.389 0.51s-6.57-0.185-9.78-0.546l0.394 0.036c-0.654-0.075-1.37-0.758-1.472-1.399-0.356-2.209-0.559-4.755-0.559-7.349 0-2.592 0.203-5.136 0.594-7.618l-0.036 0.275c0.103-0.647 0.819-1.33 1.467-1.404 2.818-0.325 6.083-0.51 9.392-0.51 3.307 0 6.57 0.185 9.78 0.546l-0.394-0.036c0.654 0.075 1.37 0.758 1.472 1.399 0.356 2.209 0.559 4.755 0.559 7.349 0 2.592-0.203 5.136-0.594 7.618l0.036-0.275zM20.555 15.168l-6-4c-0.156-0.105-0.348-0.168-0.555-0.168-0.552 0-1 0.448-1 1v0 8c0 0 0 0 0 0 0 0.552 0.448 1 1 1 0.207 0 0.399-0.063 0.558-0.17l-0.004 0.002 6-4c0.27-0.182 0.445-0.486 0.445-0.832s-0.175-0.65-0.442-0.83l-0.004-0.002zM15 18.131v-4.263l3.197 2.131z">
            </path>
        </symbol>
        <symbol id="icon-facebook-logo" viewBox="0 0 32 32">
            <path
                d="M25.65 2.932c0-1.719-1.195-2.932-2.914-2.932h-0.036c-0.217 0-0.434 0-0.634 0-0.271 0-0.543 0-0.833 0s-0.561 0-0.851 0c-0.634 0-1.14 0-1.611 0.018-2.063 0.072-3.909 0.778-5.357 2.027-1.466 1.267-2.407 3.023-2.715 5.068-0.145 0.977-0.163 1.919-0.163 2.824-0.38 0-0.778 0-1.158 0-0.398 0-1.448 0-2.244 0.814-0.796 0.796-0.796 1.846-0.796 2.244 0 1.285 0 2.606 0 3.891 0 0.452 0 1.484 0.833 2.299 0.796 0.778 1.846 0.778 2.281 0.778 0.362 0 0.742 0 1.104 0v1.321c0 2.534-0.018 5.086-0.018 7.62 0 0.489-0.018 1.484 0.778 2.281 0.796 0.814 1.792 0.814 2.281 0.814 0.507 0 1.032 0 1.538 0h2.172c0.796 0 1.774 0 2.57-0.778 0.814-0.796 0.814-1.792 0.814-2.57v-8.652c0 0 0.109 0 0.163 0 0.543 0 1.086 0 1.629 0 1.828 0 2.986-1.158 2.986-3.005 0-1.303 0-2.661 0-4 0-0.398 0-1.43-0.814-2.226-0.796-0.778-1.81-0.796-2.208-0.796-0.326 0-0.67-0.054-0.995-0.054-0.235 0-0.489-0.036-0.724-0.036h-0.018c0 0 0-0.109 0-0.181 0.308 0 0.615 0.018 0.941 0.018s0.67 0.018 1.014 0c1.81-0.036 2.95-1.158 2.968-2.932 0-0.941 0-1.882 0-2.805 0.036-0.362 0.036-0.706 0.018-1.050zM23.478 6.751c0 0.615-0.181 0.778-0.833 0.796-0.851 0.018-1.683 0-2.534 0.036-1.068 0.036-1.502 0.489-1.538 1.557-0.036 0.995 0 2.009 0 3.095 0.326 0 0.652 0 0.977 0 0.163 0 0.326 0 0.489 0 0 0 0 0 0.018 0 0.471 0 0.959-0.054 1.43-0.054 0.326 0 0.652-0.018 0.977-0.018 0.706 0 0.869 0.145 0.869 0.851 0 1.321 0 2.661 0 3.982 0 0.652-0.181 0.833-0.833 0.833-0.543 0-1.068 0-1.611 0-0.76 0-1.611 0-2.335 0 0 0.253 0 0.471 0 0.688 0 3.385 0 6.787 0 10.172 0 1.158-0.036 1.177-1.213 1.177-0.724 0-1.448 0-2.172 0-0.507 0-1.032 0-1.538 0-0.778 0-0.887-0.127-0.887-0.923 0-3.457 0.018-6.932 0.018-10.389 0-0.217 0-0.434 0-0.724-0.724 0-1.357 0-1.991 0-0.434 0-0.869 0-1.285 0-0.778 0-0.941-0.145-0.941-0.905 0-1.285 0-2.588 0-3.873 0-0.742 0.163-0.905 0.887-0.905 0.434 0 0.851 0 1.285 0 0.652 0 1.303 0 1.973 0 0.018-0.253 0.018-0.471 0.036-0.688 0.036-1.321-0.036-2.679 0.163-3.982 0.471-3.131 2.824-5.14 5.991-5.249 0.507-0.018 1.032-0.018 1.538-0.018 0.561 0 1.122 0.036 1.683 0.036 0.217 0 0.452 0.036 0.67 0.036h0.018c0.507 0 0.742 0.217 0.742 0.724-0.036 1.249-0.036 2.48-0.054 3.746z">
            </path>
        </symbol>

        <symbol id="icon-menu-button" viewBox="0 0 32 32">
            <path
                d="M3.2 6.4h25.6c1.766 0 3.2-1.432 3.2-3.2s-1.432-3.2-3.2-3.2h-25.6c-1.768 0-3.2 1.432-3.2 3.2s1.432 3.2 3.2 3.2zM28.8 12.8h-25.6c-1.768 0-3.2 1.432-3.2 3.2s1.432 3.2 3.2 3.2h25.6c1.766 0 3.2-1.432 3.2-3.2s-1.432-3.2-3.2-3.2zM28.8 25.6h-25.6c-1.768 0-3.2 1.432-3.2 3.2s1.432 3.2 3.2 3.2h25.6c1.766 0 3.2-1.432 3.2-3.2s-1.432-3.2-3.2-3.2z">
            </path>
        </symbol>
        <symbol id="icon-close" viewBox="0 0 32 32">
            <path
                d="M30.4 1.623c-0.891-0.891-2.331-0.891-3.223 0l-11.177 11.154-11.177-11.177c-0.891-0.891-2.331-0.891-3.223 0s-0.891 2.331 0 3.223l11.177 11.177-11.177 11.177c-0.891 0.891-0.891 2.331 0 3.223s2.331 0.891 3.223 0l11.177-11.177 11.177 11.177c0.891 0.891 2.331 0.891 3.223 0s0.891-2.331 0-3.223l-11.177-11.177 11.177-11.177c0.869-0.869 0.869-2.331 0-3.2z">
            </path>
        </symbol>
        <symbol id="icon-linkedin-logo" viewBox="0 0 32 32">
            <path
                d="M6.984 9.019h-6.062c-0.415 0-0.751 0.336-0.751 0.751v21.191c0 0.415 0.336 0.751 0.751 0.751h6.063c0.415 0 0.751-0.337 0.751-0.751v-21.191c-0.001-0.415-0.336-0.751-0.752-0.751zM6.233 30.209h-4.56v-19.688h4.56v19.688zM23.886 8.761c-2.943 0-4.869 1.27-5.988 2.375l-0.138-1.438c-0.038-0.386-0.362-0.679-0.747-0.679h-0.015l-5.526 0.106c-0.203 0.004-0.395 0.089-0.533 0.237s-0.212 0.345-0.203 0.548c0.069 1.547 0.067 3.356 0.064 5.45l-0.001 15.708c0 0.415 0.337 0.751 0.751 0.751h6.063c0.415 0 0.751-0.336 0.751-0.751v-12.25c0-0.626 0.054-1.078 0.161-1.347 0.378-0.962 1.625-1.957 3.056-1.957 1.854 0 2.961 1.41 2.961 3.774v11.78c0 0.415 0.337 0.751 0.751 0.751h5.956c0.415 0 0.751-0.336 0.751-0.751v-12.549c0-6.11-3.034-9.757-8.114-9.757zM30.498 30.316h-4.454v-11.029c0-3.206-1.752-5.276-4.463-5.276-2.151 0-3.9 1.499-4.452 2.906-0.183 0.456-0.267 1.061-0.267 1.9v11.499h-4.56l0.001-14.955c0.002-1.779 0.005-3.353-0.037-4.75l4.067-0.078 0.234 2.422c0.038 0.385 0.361 0.679 0.748 0.679h0.128c0.259 0 0.5-0.133 0.637-0.353 0.443-0.708 2.171-3.018 5.809-3.018 4.202 0 6.612 3.009 6.612 8.255v11.798h-0.001zM4.207 0.182c-2.438 0-4.207 1.68-4.207 3.996 0 2.314 1.734 3.993 4.123 3.993 2.463 0 4.25-1.679 4.25-4.011-0.055-2.342-1.768-3.978-4.166-3.978zM4.123 6.669c-1.543 0-2.621-1.024-2.621-2.491 0-1.492 1.088-2.494 2.705-2.494 1.582 0 2.629 0.985 2.664 2.494 0 1.49-1.105 2.491-2.748 2.491z">
            </path>
        </symbol>
        <symbol id="icon-plate-utensils" viewBox="0 0 32 32">
            <path
                d="M32 1.333v8c0 3.219-2.295 5.912-5.333 6.532v14.801c0 0.736-0.597 1.333-1.333 1.333s-1.333-0.597-1.333-1.333v-14.801c-3.039-0.62-5.333-3.312-5.333-6.532v-8c0-0.736 0.597-1.333 1.333-1.333s1.333 0.597 1.333 1.333v8c0 1.736 1.119 3.203 2.667 3.755v-11.755c0-0.736 0.597-1.333 1.333-1.333s1.333 0.597 1.333 1.333v11.755c1.548-0.552 2.667-2.019 2.667-3.755v-8c0-0.736 0.597-1.333 1.333-1.333s1.333 0.597 1.333 1.333zM19.637 28.832c-1.179 0.333-2.401 0.501-3.637 0.501-7.352 0-13.333-5.981-13.333-13.333 0-6.947 5.211-12.656 12.12-13.279 0.733-0.067 1.275-0.715 1.208-1.448-0.065-0.733-0.691-1.261-1.448-1.208-8.293 0.748-14.547 7.599-14.547 15.935 0 8.823 7.177 16 16 16 1.48 0 2.948-0.203 4.363-0.603 0.708-0.2 1.12-0.937 0.92-1.645s-0.933-1.116-1.645-0.92zM19.428 23.231c-1.075 0.511-2.227 0.769-3.428 0.769-4.412 0-8-3.588-8-8 0-3.956 2.947-7.36 6.856-7.919 0.729-0.104 1.236-0.779 1.131-1.508-0.104-0.729-0.783-1.231-1.508-1.131-5.213 0.745-9.144 5.285-9.144 10.559 0 5.881 4.785 10.667 10.667 10.667 1.6 0 3.139-0.345 4.572-1.028 0.665-0.316 0.948-1.112 0.632-1.777s-1.112-0.948-1.777-0.632z">
            </path>
        </symbol>
        <symbol id="icon-instagram-logo" viewBox="0 0 32 32">
            <path
                d="M31.563 16.063c0 2.175-0.044 4.356 0.012 6.531 0.094 3.85-2.325 6.825-5.406 8.15-1.238 0.531-2.538 0.813-3.881 0.813-4.206 0.006-8.419 0.063-12.625-0.019-3.169-0.063-5.775-1.387-7.644-4-0.981-1.375-1.45-2.938-1.45-4.631 0-4.481 0-8.956 0-13.438 0-3.656 1.781-6.213 4.944-7.875 1.375-0.719 2.869-1.025 4.425-1.031 4.081 0 8.169-0.025 12.25 0.012 3.169 0.025 5.813 1.238 7.762 3.787 1.087 1.425 1.613 3.063 1.613 4.862 0 2.275 0 4.556 0 6.838zM2.875 16.063c0 2.294 0 4.581 0 6.875 0 1.025 0.237 1.988 0.769 2.856 1.394 2.281 3.5 3.394 6.112 3.438 4.194 0.063 8.394 0.025 12.594 0.012 1.031 0 2.031-0.212 2.962-0.656 2.538-1.212 3.956-3.144 3.944-6.044-0.025-4.438-0.006-8.875-0.006-13.313 0-1.256-0.356-2.406-1.1-3.419-1.438-1.944-3.425-2.9-5.8-2.925-4.188-0.050-8.375-0.019-12.563-0.013-0.894 0-1.756 0.181-2.594 0.494-2.3 0.856-4.438 3.025-4.338 6.219 0.075 2.162 0.019 4.319 0.019 6.475z">
            </path>
            <path
                d="M16.1 22.688c-4.031 0-7.281-3.212-7.287-7.213-0.006-3.938 3.269-7.162 7.275-7.162 4.019-0.006 7.281 3.213 7.287 7.181 0 3.963-3.256 7.187-7.275 7.194zM16.1 20.375c2.744 0 4.969-2.194 4.962-4.894-0.006-2.675-2.231-4.863-4.962-4.863-2.744 0-4.981 2.181-4.981 4.875 0.006 2.7 2.238 4.887 4.981 4.881z">
            </path>
            <path
                d="M24.219 6.125c0.844 0 1.531 0.719 1.531 1.6-0.006 0.881-0.7 1.594-1.544 1.588-0.831-0.006-1.512-0.719-1.512-1.581-0.006-0.881 0.681-1.606 1.525-1.606z">
            </path>
        </symbol>
        <symbol id="icon-telegram-logo" viewBox="0 0 32 32">
            <path
                d="M28.907 3.967c-0.348-0.301-0.804-0.485-1.304-0.485-0.264 0-0.515 0.051-0.746 0.144l0.013-0.005-23.070 9.063c-0.749 0.3-1.269 1.020-1.269 1.861 0 0.966 0.684 1.772 1.595 1.959l0.013 0.002 5.86 1.172v7.319c0 0 0 0.001 0 0.002 0 1.104 0.895 1.999 1.999 1.999 0.553 0 1.053-0.224 1.415-0.587l3.243-3.243 4.922 4.331c0.348 0.31 0.809 0.5 1.314 0.5h0c0.222-0 0.435-0.036 0.635-0.102l-0.014 0.004c0.67-0.217 1.176-0.764 1.333-1.443l0.003-0.013 4.702-20.517c0.032-0.135 0.051-0.29 0.051-0.449 0-0.604-0.269-1.146-0.693-1.512l-0.003-0.002zM10.768 15.793l-6.236-1.247 17.46-6.859zM12 24.997v-5.926l3.152 2.774zM22.9 25.999l-10.299-9.063 14.831-10.711z">
            </path>
        </symbol>
        <symbol id="icon-twitter-logo" viewBox="0 0 44 32">
            <path
                d="M8.813 3.728l10.125 13.538-10.189 11.007h2.293l8.92-9.637 7.207 9.637h7.804l-10.695-14.3 9.484-10.245h-2.293l-8.215 8.875-6.638-8.875h-7.804zM12.185 5.417h3.585l15.831 21.166h-3.585l-15.831-21.166z">
            </path>
        </symbol>
        <symbol id="icon-link" viewBox="0 0 32 32">
            <path
                d="M18.31 11.266c-0.35-0.225-0.758-0.286-1.135-0.202-0.373 0.083-0.715 0.308-0.938 0.655-0.224 0.349-0.285 0.755-0.202 1.13 0.082 0.375 0.307 0.719 0.655 0.942 1.447 0.927 2.31 2.501 2.31 4.209 0 1.336-0.52 2.591-1.464 3.535l-6 6c-0.945 0.945-2.201 1.465-3.536 1.465-2.757 0-5-2.243-5-5 0-1.336 0.52-2.591 1.464-3.535l2.846-2.847c0.3-0.3 0.446-0.695 0.44-1.088-0.007-0.375-0.153-0.747-0.44-1.033-0.293-0.293-0.677-0.44-1.060-0.44-0.384 0-0.768 0.146-1.060 0.44l-2.846 2.847c-1.512 1.51-2.344 3.519-2.344 5.656 0 4.411 3.589 8 8 8 2.137 0 4.146-0.832 5.657-2.344l6-6c1.511-1.509 2.343-3.519 2.343-5.656 0-2.735-1.379-5.252-3.69-6.734zM24 0c-2.137 0-4.146 0.832-5.657 2.344l-6 6c-1.511 1.509-2.343 3.519-2.343 5.655 0 2.735 1.379 5.253 3.69 6.735 0.35 0.224 0.758 0.285 1.135 0.201 0.373-0.082 0.715-0.307 0.938-0.654 0.224-0.35 0.285-0.756 0.202-1.131-0.082-0.375-0.307-0.719-0.655-0.941-1.446-0.928-2.31-2.502-2.31-4.21 0-1.336 0.52-2.591 1.464-3.535l6-6c0.945-0.944 2.201-1.464 3.536-1.464 2.757 0 5 2.243 5 4.999 0 1.336-0.52 2.591-1.464 3.535l-2.846 2.846c-0.3 0.3-0.446 0.695-0.44 1.088 0.007 0.375 0.153 0.747 0.44 1.033 0.293 0.293 0.677 0.439 1.061 0.439s0.768-0.146 1.060-0.439l2.846-2.847c1.511-1.508 2.343-3.518 2.343-5.655 0-4.41-3.589-7.999-8-7.999z">
            </path>
        </symbol>
        <symbol id="icon-exercise-kettlebell" viewBox="0 0 32 32">
            <path
                d="M19.179 3.471c0 1.467-1.189 2.656-2.656 2.656s-2.656-1.189-2.656-2.656c0-1.467 1.189-2.656 2.656-2.656s2.656 1.189 2.656 2.656z">
            </path>
            <path
                d="M26.184 12.693c-0.584-0.334-1.328-0.131-1.662 0.453-0.197 0.344-0.206 0.743-0.062 1.082l-0.192 0.336-1.827-1.936-1.51-4.631c-0.151-0.463-0.56-0.769-1.016-0.811v-0.017h-5.89c-0.014-0.006-0.027-0.013-0.041-0.019l-3.554-1.393-0.302-3.446 0.647 0.003c0.221 0.294 0.571 0.485 0.968 0.487 0.673 0.003 1.22-0.54 1.223-1.213s-0.54-1.22-1.213-1.223c-0.396-0.002-0.748 0.187-0.972 0.479l-0.806-0.003c-0.158-0.526-0.667-0.887-1.236-0.837-0.493 0.043-0.888 0.383-1.026 0.828l-0.321-0.001c-0.221-0.294-0.571-0.485-0.968-0.487-0.673-0.003-1.22 0.54-1.223 1.213s0.54 1.22 1.213 1.223c0.396 0.002 0.748-0.187 0.972-0.479l0.367 0.001 0.385 4.392c0.039 0.447 0.329 0.834 0.747 0.998l4.237 1.66c0.002 0.001 0.004 0.001 0.006 0.002v8.287l-2.932 12.467c-0.194 0.827 0.318 1.655 1.145 1.849s1.655-0.318 1.849-1.145l2.973-12.644h0.716l2.973 12.644c0.194 0.827 1.022 1.339 1.849 1.145s1.339-1.022 1.145-1.849l-2.932-12.467v-5.13l0.359 1.101c0.054 0.166 0.144 0.318 0.264 0.445l2.503 2.652-0.263 0.461c-0.365 0.048-0.704 0.258-0.9 0.602-0.334 0.584-0.131 1.328 0.453 1.662s1.328 0.131 1.662-0.453c0.197-0.344 0.206-0.743 0.062-1.082l0.151-0.264c0.384 0.080 0.774-0.032 1.055-0.297 0.47-0.444 0.496-1.181 0.061-1.657l0.414-0.725c0.365-0.048 0.704-0.258 0.9-0.602 0.334-0.584 0.131-1.328-0.453-1.662z">
            </path>
        </symbol>
        <symbol id="icon-exercise-bicycle" viewBox="0 0 32 32">
            <path
                d="M27.996 7.358c-0.268-0.411-0.825-0.471-1.173-0.155-1.412 1.278-1.517 1.366-1.886 1.735l-2.010-0.277-0.204 0.552c0.255 0.532 0.292 1.146 0.098 1.706l0.401 0.055c-0.523 0.74-0.98 1.522-1.367 2.339-0.064 1.265 0.051 2.536 0.349 3.775 0.459-2.151 1.409-4.159 2.775-5.872l0.802 0.111c0.614 0.085 1.183-0.344 1.268-0.961 0.051-0.372-0.087-0.726-0.339-0.967l1.138-1.030c0.285-0.258 0.358-0.688 0.148-1.009z">
            </path>
            <path
                d="M22.004 6.416c-0.402-0.149-0.848 0.057-0.996 0.458l-0.392 1.061c0.55-0.019 1.068 0.162 1.474 0.484l0.372-1.008c0.148-0.402-0.057-0.848-0.459-0.996z">
            </path>
            <path
                d="M23.112 29.42c1.261-0.324 2.194-1.468 2.194-2.831 0-0.514-0.133-0.997-0.366-1.417-0.253-0.455-0.623-0.835-1.070-1.099l-1.926-4.924c-0.845-2.161-1.14-4.474-0.885-6.743-0.080 0.013 0.013 0.001-1.577 0.18-0.216 2.404 0.124 4.843 1.018 7.128l1.528 3.906-0.984-0.131-0.915-2.34-0.237 2.187-2.871-0.382c-0.213 0.343-0.497 0.626-0.876 0.839l0.48 0.023c0.465 0.023 0.856 0.387 0.878 0.852 0.027 0.545-0.422 0.972-0.942 0.946-0.375-0.018-2.844-0.137-3.169-0.153-0.496-0.024-0.879-0.446-0.855-0.942 0.021-0.432 0.355-0.883 1.025-0.851-0.448-0.314-0.781-0.774-0.938-1.299l-1.576-0.209 0.778-2.442c0.054-0.169 0.073-0.347 0.055-0.524l-0.266-2.675c-2.49-0.465-2.418-0.44-2.671-0.531l0.317 3.196-0.803 2.523c-2.553 0.165-4.573 2.287-4.573 4.882 0 1.432 0.615 2.72 1.595 3.615l-0.723 0.723c-0.22 0.22-0.26 0.572-0.074 0.821 0.232 0.31 0.674 0.334 0.938 0.070l0.892-0.892c0.678 0.355 1.448 0.557 2.267 0.557 0.73 0 12.789-1.864 12.789-1.864l2.163 2.196c0.24 0.244 0.633 0.247 0.877 0.007s0.247-0.633 0.007-0.877l-1.502-1.524zM11.699 26.742c-0.075 1.486-1.283 2.693-2.769 2.769-1.735 0.088-3.161-1.338-3.073-3.073 0.075-1.486 1.283-2.693 2.769-2.769 1.735-0.088 3.161 1.338 3.073 3.073z">
            </path>
            <path
                d="M17.272 0.283c-1.333-0.693-2.963-0.063-3.483 1.347-0.428 1.162 0.083 2.485 1.182 3.057 1.333 0.693 2.963 0.063 3.483-1.347 0.429-1.162-0.083-2.485-1.182-3.057z">
            </path>
            <path
                d="M20.567 9.066l-3.869 0.434-2.346-2.795c0.505 0.356 1.247 0.879 2.358 1.661l2.834-0.318c0 0-4.168-1.829-6.682-2.941-0.766-0.339-1.702 0.143-2.044 1.044-0.246 0.648-2.179 5.736-2.493 6.563-0.34 0.895-0.002 1.868 0.792 2.17 0.265 0.146 0.007 0.071 5.101 1.021l-0.609 5.624c-0.087 0.8 0.541 1.496 1.344 1.496 0.68 0 1.266-0.513 1.341-1.205l0.743-6.868c0.076-0.702-0.401-1.344-1.095-1.473l-2.143-0.4 0.536-1.295c-0.182-0.387-1.536-3.266-1.709-3.633l2.734 3.257c0.238 0.284 0.607 0.438 0.988 0.395l4.439-0.498c0.574-0.064 1.030-0.541 1.029-1.119-0.001-0.683-0.591-1.195-1.251-1.121z">
            </path>
        </symbol>
        <symbol id="icon-weightlifting" viewBox="0 0 32 32">
            <path
                d="M31.971 17.288c-0.001-0.436-0.067-0.877-0.195-1.293l-2.208-7.194c-0.235-0.764-1.041-1.196-1.807-0.97l-2.437 0.721c-0.53 0.157-0.891 0.608-0.962 1.122l2.301-0.6-3.373 1.887-2.656-1.363c-0.253 0.659-0.685 1.228-1.238 1.649l3.524 1.807c0 0 0 0 0.001 0 0.287 0.147 0.653 0.153 0.958-0.017 0-0 0.001-0 0.001-0.001l3.645-2.105-2.279 2.156 1.2 4.056-1.783 4.553c-0.073 0.188-0.1 0.391-0.076 0.591l0.641 5.399c0.080 0.672 0.689 1.152 1.361 1.072s1.152-0.689 1.072-1.361l-0.605-5.094 1.835-4.688 0.629-0.186 0.028 10.116c0.002 0.675 0.55 1.222 1.225 1.222 0.001 0 0.002 0 0.003 0 0.677-0.002 1.224-0.552 1.222-1.228-0-0.087-0.018-6.902-0.029-10.252z">
            </path>
            <path
                d="M27.918 5.358c0 1.174-0.952 2.126-2.126 2.126s-2.126-0.952-2.126-2.126c0-1.174 0.952-2.126 2.126-2.126s2.126 0.952 2.126 2.126z">
            </path>
            <path
                d="M19.018 18.159c-0.004-0.522-0.369-0.986-0.904-1.093v-5.186c-0.314 0.086-0.644 0.132-0.985 0.132s-0.671-0.046-0.985-0.132v5.227l-5.906 0.218-1.103-2.944c-0.145-0.387-0.487-0.666-0.896-0.731s-0.82 0.096-1.077 0.42l-4.473 5.635c-0.394 0.496-0.311 1.218 0.185 1.611s1.218 0.311 1.612-0.185l3.212-4.046 1.24 3.289c0.282 0.747 0.998 1.24 1.797 1.237l7.182-0.032c0.621-0.004 1.122-0.511 1.117-1.132l-0.017-2.288z">
            </path>
            <path
                d="M24.271 19.383c0 1.174-0.952 2.125-2.125 2.125s-2.125-0.952-2.125-2.125c0-1.174 0.952-2.125 2.125-2.125s2.125 0.952 2.125 2.125z">
            </path>
            <path
                d="M17.13 5.362c-1.6 0-2.897 1.297-2.897 2.897s1.297 2.897 2.897 2.897c1.6 0 2.897-1.297 2.897-2.897s-1.297-2.897-2.897-2.897zM17.13 9.847c-0.876 0-1.588-0.713-1.588-1.588s0.712-1.588 1.588-1.588 1.588 0.713 1.588 1.588c0 0.876-0.712 1.588-1.588 1.588z">
            </path>
            <path
                d="M17.13 7.385c-0.482 0-0.874 0.392-0.874 0.874s0.392 0.874 0.874 0.874c0.482 0 0.874-0.392 0.874-0.874s-0.392-0.875-0.874-0.875z">
            </path>
            <path
                d="M22.829 22.739h-21.936c-0.493 0-0.892 0.399-0.892 0.892s0.399 0.892 0.892 0.892h21.936c0.493 0 0.892-0.399 0.892-0.892s-0.399-0.892-0.892-0.892z">
            </path>
        </symbol>
        <symbol id="icon-running" viewBox="0 0 32 32">
            <path
                d="M20.756 2.736c0 1.511-1.225 2.736-2.736 2.736s-2.736-1.225-2.736-2.736c0-1.511 1.225-2.736 2.736-2.736s2.736 1.225 2.736 2.736z">
            </path>
            <path
                d="M31.023 10.436c-0.138-0.591-0.729-0.958-1.32-0.82l-7.984 1.863c-0.591 0.138-0.958 0.729-0.82 1.32 0.036 0.155 0.104 0.295 0.195 0.414l-3.746-0.963-1.55-4.453 2.245 3.353 0.812-2.128c0.364-0.954-0.114-2.022-1.068-2.386l-3.178-1.217c-0.339-0.13-0.706-0.171-1.066-0.12l-5.176 0.734c-0.401 0.057-0.748 0.306-0.931 0.667s-0.178 0.788 0.013 1.145l2.549 4.766-1.022 2.791c-0.15 0.328-0.179 0.712-0.050 1.079l0.927 2.639-3.865-0.422c-0.793-0.086-1.506 0.486-1.592 1.279s0.486 1.506 1.279 1.592l6.144 0.67c0.492 0.054 0.979-0.148 1.288-0.538s0.396-0.908 0.232-1.376l-1.321-3.763 3.076 4.778-2.179 6.137c-0.208 0.587-0.013 1.218 0.44 1.594h-10.94c-0.809 0-1.465 0.656-1.465 1.465s0.656 1.465 1.465 1.465h22.999c0.809 0 1.465-0.656 1.465-1.465s-0.656-1.465-1.465-1.465h-0.963l4.575-17.021c0.002-0.007 0.003-0.013 0.004-0.020l1.174-0.274c0.591-0.138 0.958-0.729 0.82-1.32zM11.17 9.543l-0.698-1.306 1.266-0.18-0.567 1.486zM21.416 29.070h-6.218c0.193-0.16 0.348-0.373 0.438-0.627l2.415-6.801c0.149-0.419 0.096-0.884-0.143-1.259l-2.119-3.328 0.493-1.291-0.491-0.126c-1.069-0.275-1.686-1.213-1.75-1.822l-0.528-5.041c1.83 5.257 1.716 4.934 1.739 4.99 0.14 0.332 0.417 0.588 0.76 0.699 0.058 0.019-0.255-0.063 4.872 1.255h0c0.595 0.153 1.204-0.153 1.444-0.703 0.209-0.478 0.095-1.018-0.26-1.374 0.050-0.005 0.101-0.012 0.151-0.023 1.613-0.376 1.938-0.452 3.574-0.834l-4.377 16.286z">
            </path>
        </symbol>
        <symbol id="icon-exercise" viewBox="0 0 32 32">
            <path
                d="M5.228 9.268c0 1.313-1.064 2.377-2.377 2.377s-2.377-1.064-2.377-2.377c0-1.313 1.064-2.377 2.377-2.377s2.377 1.064 2.377 2.377z">
            </path>
            <path
                d="M31.144 16.314c-0.516-0.198-1.101-0.059-1.471 0.351-0.283 0.313-2.363 2.616-2.669 2.955l-15.503-2.811c-0.214-0.413-0.69-0.641-1.161-0.523-0.405 0.102-3.178 0.799-3.617 0.909l-2.661-3.116 2.711 2.202 0.884-0.222-0.284-1.097 1.022 0.911 1.732-0.435c0.691-0.174 1.389 0.056 1.846 0.539l1.008 0.183c0.111-0.166 0.175-0.366 0.173-0.581-0.006-0.567-0.473-1.020-1.038-1.017l-2.080 0.022-2.601-2.325c-0.355-0.318-0.842-0.445-1.308-0.342l-4.055 0.895c-0.798 0.184-1.296 0.98-1.112 1.778l1.807 7.848h-1.429c-0.738 0-1.336 0.598-1.336 1.336s0.598 1.336 1.336 1.336c2.136 0 28.481 0 29.328 0 0.738 0 1.336-0.598 1.336-1.336v-6.213c0-0.553-0.34-1.049-0.856-1.247zM8.296 22.438l3.901-2.899 3.032 2.899h-6.933zM24.459 22.438h-5.265c-0.003-0.003-0.006-0.007-0.009-0.010l-2.519-2.408-5.368-0.974c0 0-1.74 0.452-4.788 1.222-0.649 0.163-1.305-0.142-1.614-0.701l-2.105-3.811 2.782 3.258c0.254 0.297 0.654 0.424 1.032 0.329 0.367-0.092 3.859-0.97 4.235-1.065 0.133-0.033 0.252-0.091 0.356-0.168l14.754 2.675c-0.546 0.605-0.51 0.565-1.491 1.651z">
            </path>
        </symbol>
        <symbol id="icon-weightlifting-svg" viewBox="0 0 32 32">
            <path
                d="M18.512 11.968c0 1.388-1.125 2.514-2.514 2.514s-2.514-1.125-2.514-2.514c0-1.388 1.125-2.514 2.514-2.514s2.514 1.125 2.514 2.514z">
            </path>
            <path d="M12.623 28.049v1.16h-0c0 0.841 0.682 1.523 1.522 1.523s1.523-0.682 1.523-1.523v-1.16h-3.045z">
            </path>
            <path d="M16.325 28.049v1.16h-0c0 0.841 0.682 1.523 1.523 1.523s1.523-0.682 1.523-1.523v-1.16h-3.045z">
            </path>
            <path
                d="M18.626 2.629c0 1.452-1.177 2.629-2.629 2.629s-2.629-1.177-2.629-2.629c0-1.452 1.177-2.629 2.629-2.629s2.629 1.177 2.629 2.629z">
            </path>
            <path d="M17.481 25.709h-2.959l-3.088 1.358h9.135z"></path>
            <path
                d="M27.316 13.432h-0.642c0-1.202 0-0.942 0-2.151 0-0.222-0.18-0.403-0.403-0.403h-1.1c-0.222 0-0.403 0.18-0.403 0.403 0 1.209 0 0.949 0 2.151h-1.407c0.038-0.396-0.137-0.764-0.43-0.991h0.855l0.014-1.348-1.046-0.863-2.635-3.448c-0.305-0.4-0.78-0.634-1.283-0.633l-5.68 0.008c-0.501 0.001-0.974 0.235-1.278 0.633l-2.665 3.485-0.998 0.998c0 0.003 0 0.006 0 0.008v1.16h0.859c-0.294 0.227-0.468 0.595-0.431 0.991h-1.41c0-1.202 0-0.942 0-2.151 0-0.222-0.18-0.403-0.403-0.403h-1.1c-0.222 0-0.403 0.18-0.403 0.403 0 1.209 0 0.949 0 2.151h-0.642c-0.421 0-0.762 0.341-0.762 0.762s0.341 0.762 0.762 0.762h0.642c0 1.202 0 0.942 0 2.151 0 0.222 0.18 0.403 0.403 0.403h1.1c0.223 0 0.403-0.18 0.403-0.403 0-1.209 0-0.949 0-2.151h1.571c0.048 0.456 0.389 3.682 0.44 4.159 0.101 0.957 1.307 1.362 1.956 0.619 0.746-0.854 0.682-0.781 1.573-1.8v4.283c-0.423 0.172-3.598 1.462-4.071 1.654-0.475 0.193-0.814 0.622-0.891 1.129l-0.812 5.324c-0.121 0.795 0.425 1.537 1.219 1.658s1.537-0.425 1.658-1.219l0.688-4.507c0.704-0.286 3.035-1.233 3.766-1.53h3.343c1.596 0.648 3.632 1.476 3.766 1.53l0.688 4.507c0.122 0.796 0.867 1.34 1.658 1.219 0.794-0.121 1.341-0.864 1.219-1.658l-0.812-5.324c-0.077-0.507-0.416-0.936-0.891-1.129-0.653-0.265-3.665-1.489-4.103-1.667v-4.308c1.069 1.223 0.632 0.723 1.607 1.839 0.636 0.728 1.853 0.359 1.956-0.619 0.050-0.477 0.392-3.703 0.44-4.159h1.567c0 1.202 0 0.942 0 2.151 0 0.222 0.18 0.403 0.403 0.403h1.1c0.222 0 0.403-0.18 0.403-0.403 0-1.209 0-0.949 0-2.151h0.642c0.421-0 0.762-0.341 0.762-0.762s-0.341-0.762-0.762-0.762zM11.2 16.332c-0.061-0.573-0.050-0.468-0.145-1.374h1.346c-0.488 0.558-0.706 0.808-1.201 1.374zM20.803 16.332c-0.499-0.571-0.707-0.809-1.201-1.374h1.346c-0.113 1.067-0.085 0.804-0.145 1.374zM21.11 13.432h-1.939c-0.572 1.235-1.806 2.032-3.173 2.032-1.351 0-2.595-0.783-3.173-2.032h-1.931c-0.024-0.228-0.027-0.699-0.501-1.026l0.415-0.415c0.037-0.037 0.187-0.192 0.219-0.233l1.597-2.090v1.393c0.4-1.489 1.762-2.589 3.376-2.589 1.574 0 2.908 1.046 3.344 2.479v-1.329l1.632 2.136c0.054 0.071 0.116 0.136 0.185 0.192l0.508 0.419c-0.519 0.315-0.531 0.804-0.558 1.062z">
            </path>
        </symbol>
        <symbol id="icon-exercise-svg" viewBox="0 0 32 32">
            <path
                d="M18.542 2.831c0 1.563-1.267 2.831-2.831 2.831s-2.831-1.267-2.831-2.831c0-1.563 1.267-2.831 2.831-2.831s2.831 1.267 2.831 2.831z">
            </path>
            <path
                d="M22.44 15.035c0.147 0.692 0.828 1.134 1.52 0.987s1.134-0.828 0.987-1.52c-0.082-0.388-0.34-0.718-0.709-0.892l-0.179-0.842c0.159-0.271 0.218-0.6 0.144-0.929-0.070-0.313-0.259-0.583-0.502-0.758l-0.204-0.959c0.26-0.302 0.369-0.709 0.285-1.104-0.147-0.692-0.828-1.134-1.52-0.987s-1.134 0.828-0.987 1.52c0.081 0.381 0.335 0.716 0.709 0.892l0.105 0.494-3.697 0.461-3.181-3.698 3.687 2.552 0.002-1.689c-0.011-1.056-0.877-1.903-1.933-1.892l-3.398 0.009c-0.426 0.001-0.844 0.112-1.214 0.323l-4.683 2.663c-0.773 0.439-0.875 1.516-0.196 2.092l4.262 3.62 0.022 2.004 0.313 5.484-1.485 7.345c-0.164 0.809 0.36 1.597 1.168 1.76s1.597-0.36 1.76-1.168l1.525-7.542c0.027-0.131 0.035-0.265 0.026-0.398l-0.305-4.442 2.002-0.022 2.537 0.559-0.243 4.647c-0.032 0.61 0.307 1.152 0.819 1.411h-2.002c-0.367 0-0.666 0.298-0.666 0.666v5.655c0 0.367 0.298 0.666 0.666 0.666h5.655c0.367 0 0.665-0.298 0.665-0.666v-5.655c0-0.367-0.298-0.666-0.665-0.666h-2.306c0.462-0.234 0.79-0.701 0.819-1.255l0.309-5.911c0.038-0.73-0.457-1.38-1.171-1.537l-2.203-0.485-0.007-0.675-0.792 0.099c-1.175 0.146-2.105-0.57-2.375-1.090l-2.421-4.652 3.513 4.083c0.273 0.317 0.697 0.49 1.131 0.436l4.598-0.573 0.101 0.477c-0.272 0.315-0.365 0.729-0.285 1.104zM10.533 10.989l1.15-0.654 0.018 1.645-1.168-0.992z">
            </path>
        </symbol>
    </defs>
</svg>